<svg xmlns="http://www.w3.org/2000/svg" width="1254" height="1254"><path fill="#6ca0fc" d="M595 264h2l3 5 5 8 1 4 1 2v3l1 4 1 3 1 5 3 18 4 35h2l1 6 1 7q2 6 3 14l1 6 1 3 1 4v18h2l2 8 2 11 2 11 3 15q3 6 2 14l1 3 2 1 1 8 1 2h3l3 4v2l6 1h6l11 1h2l62 7v-3l1-15 2-23v-3l8-98 2 1v2h2l2 3v3h2v27l-1 5-1 10-1 9q-4 13-3 26l-1 36v2q0 8 3 14l1 4h2v2h3l6 1 15 2 10 1 8 1h13q3-4 2-8l1-3 4-3-1 3 1 13q8 3 15 1v-2l2-29 4-37q9-1 18 1l13 1 17 1 33 3c23 3 45 6 64 19a88 88 0 0 1 29 42l2 6q3 18 2 38v10l-1 67v13l1 8 9 3q9 3 15 10 5 6 5 13l1 28v108q0 11-5 21l-8 9-1 1-6 4h-18q-21-1-43 6l-3 1q-28 9-48 30l-3 2a135 135 0 0 0-37 64l-1 2q-6 32 2 64a113 113 0 0 0 24 45v3q-17 11-36 11-25 0-49-3l-11-1-50-6-14-1-57-6h-2l-174-19h-3l-149-16h-3l-27-3h-3l-8-2h-11a166 166 0 0 1-79-20l-3-2q-12-9-19-25-7-19-6-42V581l-1-105q-1-19 8-37 7-11 19-18 18-9 39-13h3l10-2h6l2 9 1 8 2 15v5l1 2v6l6 1 27 2 31 3a462 462 0 0 0 63 7l57 5 4 1 51 5 95 10v-3l-2-14-1-3-9-73-3-29-5-43-5-39v-17"/><path fill="#fdbba3" d="M573 214q7 3 12 9a46 46 0 0 1 7 23l1 6 2 15 2 24 17 134v2l5 37 1 17v4q-16 0-31-3l-23-2-11-1h-2l-37-4-11-1-150-15h-2l-8-2-9-1h-7l-34-3h-3l-4-1-3-4-2-12-1-4-5-46v-3l-1-3v-4l-2-10-4-35v-2l-3-16c-4-31-4-31 1-43q7-12 19-19 11-5 24-6l46-6 6-1 3-1 19-2 16-3 113-15 28-4 7-1q12-2 24 2"/><path fill="#6da0fd" d="M1017 648q13 3 22 11 5 5 7 12l1 19v120q0 11-5 21l-8 9-3 3-6 2-8 1h-2l-20-1h-7q-5 0-9-4l-2 4-1-1h-9l-6 2-1 3h-2v2h-10l-7 1-6 5h-3l7-11-2 1h-2l-3-2-1 3q-1 5-6 8l-4 4-2 2-5 1v-3l4-5 3-2 2-2h2v-2q-6 3-10 8h-3v2l-7 5h-13l-1 1h-17l-24-1a454 454 0 0 0-64-5l-16-1-3-2-6-1v-1l26 1 23 2 9 1h11-3l-14-1-15-2-6-1-20-2-4-1c-24-3-24-3-30-7l-2-2-7-4-1 1 2 1 3 2 3 1 2 2 1 2-7-1-10-8v-2h2v-2l-2-1-3-2v-2h-2v-2h-2q-4-2-7-6l-2-1-2-1-2-5-3-7-2-1h-4l-2-5-3-7q-6-28 2-57 6-16 17-29l2-3q14-14 33-20c25-7 54 0 79 3l15 1 3 1 19 2h3l16 2a247 247 0 0 0 115-6q15-5 26-14l-1-10v-16m-77 195v3l2-3z"/><path fill="#dfd7d2" d="M1006 844h3q31 0 58 15 29 17 46 45 19 33 18 71-1 36-20 68l-20 25-2 2-13 11-2 2q-29 19-64 23-37 2-71-14a128 128 0 0 1-38-196l2-3 7-7 3-3q23-23 53-33l3-1q19-5 37-5"/><path fill="#d8e3fc" d="m593 255 29 2 12 1 10 1 95 11h3l3 1 6 1 11 1 31 3c20 2 20 2 27 6l3 1 2 2 2 1 5 7 2 3c6 15 1 37 0 53v4l-1 8-14 134-2-3-3 1-1 6-2 5q-16 1-32-2l-23-3v-2h-2q-4-5-5-11v-12l6-72 1-8v-9l1-21h-2l-2-6h-2l-1-2-2 20a1274 1274 0 0 1-8 107v4l-2 10-9 1-2-1-15-2h-4l-20-2-27-3h-2l-8-2-3-4v-2h-3l-2-4v-6l-3-1-1-7-3-15-3-15-2-10q-2-6-2-12v-3h-2v-7l-3-19-3-17-1-6-1-1v-8h-2l-1-8-1-3-2-13-3-21-5-22v-2l-1-5-2 2-1-3-4-9v-3h-2l-1 2z"/><path fill="#98c1fc" d="M595 264h2l3 5 5 8 1 4 1 2v3l1 4 1 3 1 5 3 18 4 35h2l1 6 1 7q2 6 3 14l1 6 1 3 1 4v18h2l2 8 2 11 2 11 3 15q3 6 2 14l1 3 2 1 1 8 1 2h3l3 4v2l6 1h6l11 1h2l62 7v-3l1-15 2-23v-3l8-98 2 1v2h2l2 3v3h2v27l-1 5-1 10-1 9q-4 13-3 26l-1 36v2q0 8 3 14l1 4h2v2h3l6 1 15 2 10 1 8 1h13q3-4 2-8l1-3 4-3-1 3v11l1 2q10 3 22 2l15 1 3 1q26 3 48 19a79 79 0 0 1 25 42q3 5 2 12v9l1 89-1 7-8 2-5 2q-2-6-2-13v-33c0-38 0-38-2-51l-2-3-1-5-3-8-1-5h-3l-1-4-1-5h-2l-4-7-3-4-4-5-1-2-6-1-2-1-1-3-5-2-2-1-8-1h-3l-1-2-9-1-4-2-1 3-2-1-7-2-3 1v-2l-2 1h-3l-2-1-8-2-8-1h-5l-1 3h-2v-2l-6-1-3 1h-4l-3 1-6-1-2-1h-5l-1-2q-8 0-16 2v-3l-4-1q-10 0-19-5v5l2 1h-3l-10-1h-3l-1-4h-5l-3 2v-2h-14l-1-2h-4l-14-1-2-1-5-1v-2l-4 3-1-3-7 2h-5l-1-2-7 1v-2h-4l-15-2h-10l-3-1h-19v-2l-7-1h-3l-4-1-7-1h-4l-2 1v-2l-2 1h-6l-2-2-3 1-1-1-8-1-6 1h-14v-2h-3l-3-1v-2l-3 1-4 1-1-2h-6l-9-1-9 1-1-1-8 1v-2l-1-2-5 1-5-1v2l-3-2-3 1-10-1-2-4h-2v2h-10l-1-2 1-2-4 1-6-1h-2l-1 3-4-1q-5-2-11-2l-2-1-9 1q-7 1-15-2h-3v-2l-5 2v-2h-5l-2 1-2 1-6-4-3 1-6-2-8 1h-11q-5 0-11-4h-5l-11-1v-2h-2l-4 1h-3l-7-2h-5l-10-1v-2h-3l-22-1h-3l-6-1-2-2-10-1-3-1v-2l-6-2-1-1h-3l-4-1-2-4-3-3-2-2-2-1-7 5q0-9 5-16 7-11 19-17 18-9 39-13h3l10-2h6l2 9 1 8 2 15v5l1 2v6l6 1 27 2 31 3a462 462 0 0 0 63 7l57 5 4 1 51 5 95 10v-3l-2-14-1-3-9-73-3-29-5-43-5-39v-17"/><path fill="#3f67eb" d="M839 439q9-1 18 1l13 1 17 1 33 3c23 3 45 6 64 19q18 15 27 35l4 13a107 107 0 0 1 2 30v11l1 12v97l1 4v8q-6 7-16 11l-3 1-3 2q-18 6-36 8h-3l-5 1-7 1-9 1-3-2q-3-12-2-24l1-25v-45q2-23-7-44l-1-3-12-18-1-2q-12-13-29-20-15-5-31-5l-4-1h-7q-4 1-8-2v-17z"/><path fill="#8ab7fc" d="M1017 648q13 3 22 11 5 6 7 12v5l-3 1-1 2h-2v2l-1 2-4 1-1 4q-2 3-6 5l-26 9q-17 6-35 9l-4 1-1 1q-34 8-70 6l-2-1-5-1q-5-2-11-2h-15v-2l-14 1v-3l-3 1q-9 2-18-1l-3-1h-2l-7-1h-3v-2h-9l-5-1h-11l-5-1-9-1h-4l-6 1-6-1-15 2-11 8h-2v2h-3v3h-3l-3 1-1 4-5 3-3 5-2 4-2 2-4 5-2 4-1 2-1 8-1 5v12l-1 9-3 3h-2v2h2l-1 5q-5-10-5-21-1-25 10-48l12-16 2-3q14-14 33-20c25-7 54 0 79 3l15 1 3 1 19 2h3l16 2a247 247 0 0 0 115-6q15-5 26-14l-1-10v-16"/><path fill="#cbc2bc" d="M1007 869h15q6 0 13 3v2l5 1 10 4q6 2 11 6l13 12 5 5 10 13v2h2q11 20 11 43l-1 4a116 116 0 0 1-21 66l-2 3q-17 20-42 31-23 9-50 6-26-4-47-21-14-13-23-29l-1-2a98 98 0 0 1-7-74l1-2q7-24 26-43l15-12 8-7c15-10 32-11 49-11m-38 21a98 98 0 0 0-30 22 79 79 0 0 0-21 35l-2 20v3q-1 13 2 24l1 5a50 50 0 0 0 9 21l4 5 5 5h2l2 4h2l1 4 2 4q19 14 42 17 17 3 34-1l2-1 1-2 4-1q15-5 28-15l2-1 9-10 5-4q7-8 10-20l4-8q8-21 3-44l-3-14h-2l-1-4q-1-6-5-11l-2-2-14-17h-2v-2q-16-13-36-19-29-4-56 7"/><path fill="#f2f4fd" d="m722 348 3 1h12l5 1 2 6 1 2q1 15-1 29l-1 12v2l-2 9-1 13v11l-1 3v2h-2v2l-1 24v6l-1 2v2h-2v9h-2v2l2 1-2 2v-2l-6-1h-2l-1-3 1-1-2-1-2-1v-2h-2l-3 1-2 1h-7l-3 1-1 3-1-2-3-1-1-3-4-2q-3-9-1-20l3-32 5-62c1-9 1-9 3-13q9-4 20-1"/><path fill="#8ab6fc" d="m239 465 13 1 13 2h7l3 1 29 2h3l42 4q17 3 34 2l7 1h9l3 1h9l9 1 13 1 24 2q22 5 45 6h2l18 1h2v2l5 1h7q13 0 25 3l30 2 1 1h5l3 1h3a671 671 0 0 1 73 7h2l44 4v2h2q17-1 33 3l16 1h7c26 1 26 1 36 4l16 2 6 1h3l5 1 5 1q18 1 33 10l2 2 3 1 3 1 4 8h2l3 2 4 5v2h2l6 15 1 2 3 21-3-3-2-5-2-8-1-5h-3l-1-4-1-5h-2l-4-7-3-4-4-5-1-2-6-1-2-1-1-3-5-2-2-1-8-1h-3l-1-2-9-1-4-2-1 3-2-1-7-2-3 1v-2l-2 1h-3l-2-1-8-2-8-1h-5l-1 3h-2v-2l-6-1-3 1h-4l-3 1-6-1-2-1h-5l-1-2q-8 0-16 2v-3l-4-1q-10 0-19-5v5l2 1h-3l-10-1h-3l-1-4h-5l-3 2v-2h-14l-1-2h-4l-21-3v-2l-4 3-1-3-7 2h-5l-1-2-7 1v-2h-4l-15-2h-10l-3-1h-19v-2l-7-1h-3l-4-1-7-1h-4l-2 1v-2l-2 1h-6l-2-2-3 1-1-1-8-1-6 1h-14v-2h-3l-3-1v-2l-3 1-4 1-1-2h-6l-9-1-9 1-1-1-8 1v-2l-1-2-5 1-5-1v2l-3-2-3 1-10-1-2-4h-2v2h-10l-1-2 1-2-4 1-6-1h-2l-1 3-4-1q-5-2-11-2l-2-1-9 1q-7 1-15-2h-3v-2l-5 2v-2h-5l-2 1-2 1-6-4-3 1-6-2-8 1h-11q-5 0-11-4h-5l-11-1v-2h-2l-4 1h-3l-7-2h-5l-10-1v-2h-3l-22-1h-3l-6-1-2-2-3-1z"/><path fill="#f79c84" d="m587 232 3 2q4 12 4 24l20 167v2l5 37 1 17v4q-16 0-31-3l-23-2-11-1h-2l-37-4-11-1-150-15h-2l-8-2-9-1h-7l-28-2c-11-1-11-1-15-3q-3-4-3-9v-9l1-14h2v13l-2 2h3l1-3 2 4-1 7h8l-3 4h5l1-5 4 2-1 3h5l2 1h2v2l16 3 1 1 7-1h3l11-2v2h2l1-2 4 1v5h2l7-1h2l3-1h10l-1-3h2v2h3v2h24l1 3 1-1 2-2h3v2l3-1 3-1 3 1-1 2 8-3v2h2v2l11-1v2l3-1h5l2 1 1 3h5l3 2 11 1 10 1 2 2 3-1h8l2-3h9l4 2 3 2 5-1 2-1q3-3 7-3l3-1v3h7v-2q5 0 8 3l2 1-5 3h8l1 3 5 1h4v-2h4v-4h2l1-4 1 2h4l3 4 1-2 2-2 3 2v-2l1-3 5-1 3 5h3l3 1h9v-4h-3l1-3-1-17v-4l-3-21-2-21-2-13-2-18q-1-22-5-44l-3-23v-3l-5-57v-7z"/><path fill="#5288fb" d="m940 843 2 1-3 2zm39-2 4 1 3 3h-2q-41 10-72 40-26 25-36 61l-1 2-1 2q-6 32 2 64 7 24 22 42l2 3v3q-17 11-36 11-25 0-49-3l-11-1-50-6-14-1-57-6h-2l-247-26h-2l-15-3v-1l20 2h2l1-2 3 1v2h6l3-1 6-2 1 1h8l13 1v2h7l2 2 1-2h3l1-2h9v2h2v-2l5 2v2h16v2h11v-2h2v4h11l5-1 4 1 2-1h11l3 1v4l12-3v3h17v2h9l1 1 20 1 3-1 2 1v2h6l4-1 8-1v2l7 2h4l1-2 7 2 1 2h18l6 1h7l12 1v2h2v2h3l14-1h2l12 1v3l1 2 7-1v-2q5 0 9 3l3-1h10l8 1 1-1 6-1h6l3 3 2 2h19v3h3v2l2-2 2-1 4 1 3-1v-2l2 1v2l10 1h11l1-4 7-2 4-2 1-2v-2l4-2h5l1-6-1-2h-2l-2-1-1-5-3-1v-7l-1-5h-3l-1-5q1-5-2-11l-1-4-1-4h-2l1-14h-2q0-8 2-17h-2l-1-5 3-3 1-3-2-1v-5l3-2 2-12 1-2 2-10 3-2 3-7 3-9 2-1 4-7 1-2h2v-2h2v-4l2-1 1-2 4-4 2-1v-2h2l-1-3 2-1v-2l-1-2 2-2-4-1-2-1h-2l-2 1v-2h-2l-3 1h-3l-5-1-3 1-5-1q-11-3-20-1l-3 1v-2q-9-2-19-2l-8-1-6-1h-6l1-2h17l34 2 40 1v-2q4-3 8-3l5-3 3-3 4-5h2l1-4 1-2 7 1-7 11q7-3 7-5l2-1h17v-2h2v-2l1-2 5-2h12zm-190 219 2 1Z"/><path fill="#e8eaf6" d="M775 738q13 5 22 15 7 9 7 20c0 13 0 13-2 18l-1 2-1 2q-6 10-15 15-9 4-19 4-9 0-19-6-10-7-15-19l-1-3-1-2q-3-10-1-21 3-10 11-17 15-14 35-8"/><path fill="#fdfbfb" d="M464 322q9 3 16 10 7 9 9 19 2 12-3 22-4 9-11 15t-16 7q-10 2-21-3-8-5-14-13-7-13-6-27 0-7 4-14l1-2q6-9 15-13 13-4 26-1"/><path fill="#8bb5fc" d="M839 439h12l36 3 33 3c23 3 45 6 64 19a88 88 0 0 1 29 42l2 6q3 18 2 37v98h-1v-15l-1-96v-10l-1-6v3l-1 4-8 4h-4l-3-8-2-5-1-3-1-2-2-1v-3l-2-1-2-1-1-5h-2l-4-6-3-2-1-2q-3-5-8-8l-3-1-6-6-3-3-7-2-5-2q-19-6-39-7l-9-2q-9-2-18-2l-22-4-11-1h-8v-12z"/><path fill="#568afc" d="M839 453h9l17 3 17 2 21 3 11 2a124 124 0 0 1 46 13l2 3 8 5 8 7v3l4 2 3 4v2h2l3 6 2 1v3l3 1 2 5 1 2 2 5 2 5 6-1 3-1 2-1-1-5 3-4 1 18v3l1 95v3l1 23v5l-6 2q-4 1-8 3h-3q-2-7-3-16l-1-4v-22a759 759 0 0 0-6-105v-2l1-2h-2v-4h-2l-1-7h-2l-5-10v-2h-2l-2-1v-2l-3-1-1-2-2-1-2-1-1-2-4-1q-7-1-12-6h-3l-2-3-1 2h-3v-2q-9-2-19-2v-2h-3l-5-1-1 2-1-1-7-1h-12l-5-1h-11l-3-1v-4h-11v-2h-3l-10-2-8-2-5-3z"/><path fill="#c5d2f8" d="m833 301 3 3v11l-2 38-1 8-14 134-2-3-3 1-1 6-2 5q-16 1-32-2l-23-3v-2h-2q-4-5-5-11v-12l6-72 1-8v-9l1-21h-2l-2-6h-2l-1-2-2 20-7 98-2 17v3l-1 3h-5l1-7 1-4 2-32 2-9v-13l3-30 1-17v-4c2-16 2-16 1-23l-2-3v-5h-3q-13 1-26-3v-1q11-2 22 0h7l13 2 2 1v3l3 1q6 12 6 26v7l1 5v3l-1 2q-2 3-2 7v4q1 6-2 12l1 4c0 18 0 18-3 23l1 3v2l-1 2-2 22q-2 6-1 11l4 1v4l1 3h9l4-2 1 2 5 1h4l-1-5h4v2l3-1 3 5 4 4h9l2-1q3-4 2-9l1-4v-3l1-2v-11l1-6v-7h2l1-8v-3l2-15v-4l4-31 1-10v-13l2-22 2-21q0-7 2-14l1-11v-2z"/><path fill="#fc84a1" d="m828 288 10 5q8 8 12 19c3 11 0 25-1 37l-3 30-3 31-7 61-1 19v4l-1 6-1 7h-13l-2-1v-8l5-54v-3l11-107v-2c3-26 3-26-2-37z"/><path fill="#d2c9c4" d="m1036 884 2 1h2v2l4 1 9 1v2l4 1 1 2 3 1 4 4 7 7 2 3v2h2l2 3v3h-2l-1 2-2-2-10-11-2-2v-2l-4-2-4-3q-16-11-37-14-27-2-51 10-22 12-36 33-11 19-12 41v3q-1 13 2 24l1 5 4 13 1 4 1 2 3 1 2 4 6 6 2 1 7 10v2l2 1 6 3q6 5 15 7l7 3q20 6 42 2h4l2-1 1-3 4-1q16-5 28-15l3-2 6-6 1-2 4-5 4-3q6-7 7-16l3-7 1 7 2-1 3 3-1 4-4 1 1 3-2 4-1 2q-1 5-6 7l-6 8v3l-3 4-3 3-2 2q-21 17-48 22-18 3-37-1h-3l-5-2-2-5h-3v-3h-4v-2h-3v-2l-3 1-3-1v-2l-3-1-7-3-2-3v-3h-2v-2l-1-2-4-2v-2l-3 1-3-3-2-6-2-2-1-1-1-5h-2q-9-15-10-32l1-21 1-1 5-26 2-6 4-8 2-3 1-3h3l1-4 1-3 3-1 1-2h3v-2l3-3h2l1-2 1-3 4-1v-2l6-4 2-1q10-6 22-7l2-1q27-6 55 2"/><path fill="#e9e5e2" d="M979 927q7-1 13 2 4 2 5 6l2 6 1 3 1 3 1 4 3 10 9-10 15-14h9l6 2 1 2v2l-4 5-3 2-9 8-10 11h2l11 1 3 2-1 9-3 2-4-1h-3l-3-1-3-1-9-2-1 8h2q10 1 19 4l1 5-3 6h-9l-2-1-12-3v2l-1 5-1 5-2 5-13-1-3-2q1-9 4-18h-4l-11-3h-3l-3-2 1-10 1-1q12 1 23 3v-6l-8-2-5-1-2-1-5-1v-7l1-2 2-2h5l3 1 6 1-8-20-1-3-1-3-1-5z"/><path fill="#c8d4f8" d="M593 258q7-1 16 2l5 4q1 8-1 15v2l2 1 1 7 1-2h2l1 5 2-7q3 5 3 10l-1 7-1 12 3-6 1 12-3 5 1 5 3 2v26h2v-5l3 4v4q-1 10 2 19l1 6-1 2h2v4h2l1 13 2 16-1 7h2l1 7 1 6 2 1-1 9 1 7v4l2 9 1 2 10 3 5 1v-2l12 4 3-3h2v2h2l1-3h3l1-2v19l-27-2h-2l-9-2-3-4v-2h-3l-2-4v-6l-3-1-1-7-3-15-3-15-2-10q-2-6-2-12v-3h-2v-7l-3-19-3-17-1-6-1-1v-8h-2l-1-8-1-3-2-13-3-21-5-22v-2l-1-5-2 2-1-3-4-9v-3h-2l-1 2zm80 221 1 2 1-2z"/><path fill="#9bc2fd" d="m751 687 2-1q9-1 18 2h4v2h11q7 0 12 2 13 2 25 3l6 1 23 1h3l5 1v2h13q9 0 16 2h13l15-1h2l1 3h7l8-1-1 2 6 1-3 1 1 2h8l-5 2h-41q-8 0-17-2l-7-1h-2l-31-3-14-1h-2l-18-1-20-3c-14-4-32-3-46-1l-2 1-1 2-4 2-2 1-6 2q-6 3-10 9l-2 2-2 3h-2v2h-2l-2 1v3h-2l-4 7q-4 5-5 9h-2l-2 17-2 8v3l-1 3-3 1q-4-16 1-31 6-23 23-41 11-10 25-16z"/><path fill="#7dacfc" d="M440 488h8l43 4 9 1h9l11 1v2h4l12 1 17 2h4l138 14q23 1 45 4h2l2 1 29 2h8v2h2q22 0 43 4l13 1q14 0 27 4l3 1q13 4 22 13l1 3 4 2a35 35 0 0 1 13 17l1 2 2 1q6 12 5 25l-3-3-2-5-2-8-1-5h-3l-1-4-1-5h-2l-4-7-3-4-4-5-1-2-6-1-2-1-1-3-5-2-2-1-8-1h-3l-1-2-9-1-4-2-1 3-2-1-7-2-3 1v-2l-2 1h-3l-2-1-8-2-8-1h-5l-1 3h-2v-2l-6-1-3 1h-4l-3 1-6-1-2-1h-5l-1-2q-8 0-16 2v-3l-4-1q-10 0-19-5v5l2 1h-3l-10-1h-3l-1-4h-5l-3 2v-2h-14l-1-2h-4l-14-1-2-1-5-1v-2l-4 3-1-3-7 2h-5l-1-2-7 1v-2h-4l-15-2h-10l-3-1h-19v-2l-7-1h-3l-4-1-7-1h-4l-2 1v-2l-2 1h-6l-2-2-3 1-1-1-8-1-6 1h-14v-2h-3l-3-1v-2l-3 1-4 1-1-2h-6l-9-1-9 1-1-1-8 1v-2l-1-2-5 1-5-1v2l-3-2-3 1-10-1-2-4h-2v2h-10l-1-2z"/><path fill="#4172f2" d="m940 843 2 1-3 2zm39-2 4 1 3 3h-2q-41 10-72 40-26 25-36 61l-1 2-1 2q-6 32 2 64 7 24 22 42l2 3v3l-7 4h-2a75 75 0 0 1-48 4l6-2h16l1-4 7-2 4-2 1-2v-2l4-2h5l1-6-1-2h-2l-2-1-1-5-3-1v-7l-1-5h-3l-1-5q1-5-2-11l-1-4-1-4h-2l1-14h-2q0-8 2-17h-2l-1-5 3-3 1-3-2-1v-5l3-2 2-12 1-2 2-10 3-2 3-7 3-9 2-1 4-7 1-2h2v-2h2v-4l2-1 1-2 4-4 2-1v-2h2l-1-3 2-1v-2l-1-2 2-2-4-1-2-1h-2l-2 1v-2h-2l-3 1h-3l-5-1-3 1-5-1q-11-3-20-1l-3 1v-2q-9-2-19-2l-8-1-6-1h-6l1-2h17l34 2 40 1v-2q4-3 8-3l5-3 3-3 4-5h2l1-4 1-2 7 1-7 11q7-3 7-5l2-1h17v-2h2v-2l1-2 5-2h12z"/><path fill="#c5bbb6" d="m875 945 2 8v7q-3 20 2 40l1 3 1 5h2l2 6 2 4 3 10 3 4 5 8 1 3 1 4 2 1q6 3 10 9v2l9 6 3 3 5 7 2 1v2l4 1 5 3v2l4 1 3 1q4 3 10 3l5 2 12 4h2l24 2h3l16-1 11-2 17-4 1 6-10 4-2 1q-34 9-69 2-35-10-61-36a126 126 0 0 1-31-122"/><path fill="#b0bdf1" d="M595 264h2l3 5 5 8 1 4 1 2v3l1 4 1 3 1 5 3 18 4 35h2l1 6 1 7q2 6 3 14l1 6 1 3 1 4v18h2l2 8 2 11 2 11 3 15q3 6 2 14l1 3 2 1 1 8 1 2h3l3 4v2l-9-1-2-2v-2h-3v-3h-2q-4-10-6-22v-2h-2q-4-16-4-32l-3-18q-2-7-3-16l-4-18-1-1v-6h-2l-1-7-2-9v-9q-1-16-6-31v3l-1 2h-1l-1-9-1-3-2-22v-16"/><path fill="#fd9b85" d="m587 232 3 2 1 4 1 3 4 36q3 28 3 56l1 18 2 9v2l1 6v3l1 2v2l1 1 1 29v8l2 20 1 15v31h-7l-1-2-1-3-12 1h-3l-2-1-1 3-2-2h-17v-2h4v-4h2l1-4 1 2h4l3 4 1-2 2-2 3 2v-2l1-3 5-1 3 5h3l3 1h9v-4h-3l1-3-1-17v-4l-3-21-2-21-2-13-2-18q-1-22-5-44l-3-23v-3l-5-57v-7z"/><path fill="#e8e3e0" d="M1006 844h3q31 0 58 15a127 127 0 0 1 60 77 42 42 0 0 1 0 24h-1l-1-7-2 4-1-4a155 155 0 0 0-11-37c-5-12-5-12-8-15q-5-6-8-13v-2h-3l-3-1-1-3-5-3v-2h-2l-1-3-4-2-12-7-12-6-3-1q-7-3-15-4l-6-1-1-3h-14l-31 3c-11 1-11 1-15 3l-13 4h-2l-2 1v2c-5 3-5 3-8 3v3l-6 2-4 3h-2v2l-4 2-5 3-3 6-10 10-4 5-2-3 2-7 11-11q22-22 51-31l3-1q19-5 37-5"/><path fill="#dbd3ce" d="m1128 960 2 1q4 34-10 64-11 25-29 43l-2 2-13 11-2 1q-12 9-24 14h-2l-1-3-1-2-6 2-22 4-3 1q-28 4-55-6l-2-1-6-2-12-5-1-2-6-3-2-1v-2l-3-1 4-1 3 2v2h3l3 1 1 1 7 4 7 3 9 3 3 1 14 2h2l30 1h4q9 0 17-4l2-1 2-1 1-2 4-2h2l2-1 3-1 9-2v-2l3-1 4-1 3-5 6-4 6-6 2-1h2v-2l5-4h2v-2l2-2q4-3 6-8l1-2 2-1 4-9 1-2h2l2-5 1-5h2l1-3v-3h2v-4l3-12 4-19 1-6 1-6v-5"/><path fill="#709efb" d="M839 439h10l5 1 1 3h2v2h3l3 1v5h4v2l4 1h5l1 1 8 1h3l57 9q11 2 20 9l4 5 2 1q5 3 9 8l10 8v2h2l1 6 4-2 3-1 4-2 2-1 2 2 2 1 2 1 2 7 1 3q3 12 2 23v112h-1v-15l-1-96v-10l-1-6v3l-1 4-8 4h-4l-3-8-2-5-1-3-1-2-2-1v-3l-2-1-2-1-1-5h-2l-4-6-3-2-1-2q-3-5-8-8l-3-1-6-6-3-3-7-2-5-2q-19-6-39-7l-9-2q-9-2-18-2l-22-4-11-1h-8z"/><path fill="#9baaea" d="M601 308h1v3l2 6q4 11 4 24l1 10 1 14h2l2 6 2 8 2 8v3l4 19 2 18q0 12 3 23v6h2l1 4 3 12 2 6v2h2v3h3l3 4h-20l-3-1-1-6-1-4v-2l-1-14-4-30-9-76v-2l-4-43z"/><path fill="#fd99b1" d="m828 288 10 5q8 8 12 19c3 11 0 25-1 37l-4 40h-1l-1-7h2l-2-4-3 9q-2 8-7 15l-2 9-3 6-1-1 1-20v-3l1-6 2-16v-4c4-39 4-39 4-55v-2q0-10-5-19z"/><path fill="#e3ebfc" d="m608 256 42 4 10 1 76 9h7l3 1 5 1 11 1 31 3c20 2 20 2 27 6l3 1 6 5 2 5-3-1v3l-5 1-3-5-2-1v-2h-4l-5-1v-2l-4-1-13-1-30-3h-8l-8-1h-4l-3-1h-5l-18-2-4-1h-4l-7-2h-7l-5-2-4-1h-7l-10-1-7-1-15-2h-3v-2l-11 1v-2l-2 1h-7l-5-3h-3l-3-1v-3z"/><path fill="#d2ddfa" d="M735 346h7l13 2 2 1v3l3 1q6 12 6 26v7l1 5v3l-1 2q-2 3-2 7v4q1 6-2 12l1 4c0 18 0 18-3 23l1 3v2l-1 2v8c-1 14-1 14-3 19h-2l2-51 2-17q4-26 0-51l-1-2-4-2-1-2-1-2-6-1 1 2q3 2 2 5v7l-10 125v3l-1 3h-5v-4l1-3 1-4 2-32 2-9v-13l3-30 1-17v-4c2-16 2-16 1-23l-2-3v-5h-3q-13 1-26-3v-1q11-2 22 0"/><path fill="#8eb7fc" d="m197 454 3 1-1 7v481q0 7 2 13l2 2-1 5 2 1-1 2 2 2v6q-4-4-5-10l-1-2a126 126 0 0 1-3-41V465z"/><path fill="#feb9a1" d="M458 339q6 3 11 9l2 4q1 6-1 12-2 7-8 11-4 3-9 2-4 1-8-2-5-3-8-9l-1-9v-3q0-4 2-7h2v-2l2-4q8-3 16-2"/><path fill="#bcc9f5" d="m594 260 6 2 1 3h2l2 1 4 16 1 3 2 1 1 6 4 27 1 3 1 10 1 2 1 5v7l4 23 3 18 1 5v7l1 8v4h2l1 7 1 3 2 10 1 1 1 7 3 16 2 12v4l4 1v2l3 1 2 2h3l2 1 2 5 3 1v2l2-1 8-1 17-1v9l-27-2h-2l-9-2-3-4v-2h-3l-2-4v-6l-3-1-1-7-3-15-3-15-2-10q-2-6-2-12v-3h-2v-7l-3-19-3-17-1-6-1-1v-8h-2l-1-8-1-3-2-13-3-21-5-22v-2l-1-5-2 2-1-3-4-9v-3h-2l-1 2z"/><path fill="#e9e4e0" d="m1102 979 2 2-1 8v2q-3 14-10 27l-1 3-8 12-2 2-2 2-1 2-2 2-2 2-1 1h-3l-1 2-5 6-5 4-7 5h-2l-15 7-6 1v2l-8 2-2 1q-25 5-51-3l-15-7-2-3-4-1-4-2-2-3h-2l-3-1-3-6-3-4h4l6 4q16 14 37 19l2 1a97 97 0 0 0 80-19l3-2q20-16 29-41 5-9 6-19z"/><path fill="#3762e5" d="m280 420 2 1 2 9v3l1 17q-12 1-22-2h-3q-14-2-26-9v-4q14-8 31-11l2-1 1-1 4-1h3z"/><path fill="#fb927d" d="M598 306h1l1 5v4l14 110v2l5 37 1 17v4q-8 1-17-2v-1l3-1 3-1 1-9v-2l-1-20v-2l-2-15-1-11v-3l-1-23c0-15 0-15-2-22l-3-16-2-34z"/><path fill="#fec8b2" d="m573 214 10 7-4 1-2-1v6l-2-1v-2h-3l-5-1q-5-3-10-3h-4l-19 2-16 2h-2l-35 4-8 2h-46v-1l16-2 31-4 2-1 64-8 2-1 7-1q12-2 24 2"/><path fill="#5c93fb" d="m286 1004 3 1-1 2h11l8-1v2h4l1-2v2h4l1 2 2 1 5-1v2h2l6-1h3l19-1v2h8l-1 3h2l5-1v2h15v2h3v2h5l-4 3q-19 1-39-2l-15-2h-3l-17-3h-10l-27-3h-4l-2-1-7-2v-2q10-2 19-1h3z"/><path fill="#5387fa" d="m940 843 2 1-3 2zm39-2 4 1 3 3h-2q-26 8-50 21l-2 1-2-1v-2l-2 1q-16 5-34 5h-3l-10 1h-3l-15-1-8 2v-2q-9-2-19-2l-8-1-6-1h-6l1-2h17l34 2 40 1v-2q4-3 8-3l5-3 3-3 4-5h2l1-4 1-2 7 1-7 11q7-3 7-5l2-1h17v-2h2v-2l1-2 5-2h12z"/><path fill="#9cc4fd" d="M280 406q3 4 2 7l1 3-1 5q-6 3-14 2l-4 1-9 3-11 4-4 1-4 3h-3v4l-3-1v-4h3l-1-3v-4l5-5 1-6-2-1 25-7h3c11-3 11-3 16-2"/><path fill="#c8bfbd" d="m875 945 2 8v7q-3 20 2 40l1 3 1 5h2l2 6 2 4 3 10 3 4 5 8 1 3 1 4 2 1q6 3 10 9v2l9 6 3 3 4 6q-4 0-7-3l-8-8-4-4-2-1v-3h-2v-4l-5-1-8-1-6-9-1-2-3-6-2-3a130 130 0 0 1-5-84"/><path fill="#5f93fa" d="M933 584h1v113h6v1a514 514 0 0 1-103-8l-44-4h-2l-5-1-1-2h16l3 1h3l5 1h5l9 1 39 5 5-1 3 1 2 1 1-2 5 1q5 3 9 2l3-1v2h4l3 1h5l7-2v-14l1-17h1l1 10q1 6 3 10v3l2 1-1 3 2 2 2-2h4l3-1 1-7v-24h1v-9l1-57v-7"/><path fill="#b2c2f4" d="m749 355 2 1v2h2l2 3v3h2v27l-1 5-1 10-1 9q-4 13-3 26l-1 36v2q0 8 3 14l1 4h2v2h7v1h-11l-7-2q-2-5-1-11v-28l1-3v-6l1-1 1-9v-3l3-35 1-37q-2 6-2 11v3h-1z"/><path fill="#d3cbc6" d="m1086 1062 1 4h-2l-1 4-2 7-6 4-3 2q-11 8-24 13l-3-5-6 2-22 4-3 1q-28 4-55-6l-2-1-6-2-12-5-1-2-6-3-2-1v-2l-3-1 4-1 3 2v2h3l3 1 1 1 7 4 7 3 9 3 3 1 14 2h2l30 1h4l15-3 15-5q9-1 14-6l3-1 11-10 9-6z"/><path fill="#a4b2ec" d="m597 291 6 4 2 2 1 10 1 15 3 17 2 10 4 16 3 14 5 34 3 12 2 12v10h2l2 7 1 3 2 9 4 14 1 4h2l5 3 1 1q-5 0-9-3v-2h-3v-3h-2q-4-10-6-22v-2h-2q-4-16-4-32l-3-18q-2-7-3-16l-4-18-1-1v-6h-2l-1-7-2-9v-9q-1-16-6-31v3l-1 2h-1l-1-8v-2z"/><path fill="#ebe9e9" d="M1006 844h3q18 0 36 5l-2 2-4-1q-27-5-54 0l-3 1q-11 2-20 6l-10 3-2 1v2c-5 3-5 3-8 3v3l-6 2-4 3h-2v2l-4 2-5 3-3 6-10 10-4 5-2-3 2-7 11-11q22-22 51-31l3-1q19-5 37-5"/><path fill="#fdc6b0" d="m427 230-2 3h-5l-16 2h-2l-9 3-7 1-13 3q-12 4-26 5h-2l-11 1-11 1q-14 2-28 1v2l-4 2h-2l-6 2v-3q13-8 28-8l15-2 25-4 13-2h3l30-4 7-1 4-1z"/><path fill="#6090fa" d="m803 765 1 2h2q3 18-1 34l-3 5-5 2-2 1-1 4q0 3-4 5-9 4-20 3l-3 1-7-1-5-4-3-1-2-1v-2h-3l-3-1-2-3 1-3q6 1 10 4 8 4 18 3 9 0 17-5 8-6 13-16 3-8 2-17v-10"/><path fill="#fba58b" d="M596 354c5 9 4 20 5 29l1 14 3 23v3l1 4 1 4q3 24 2 48h-7l-1-2-1-3-12 1h-3l-2-1-1 3-2-2h-17v-2h4v-4h2l1-4 1 2h4l3 4 1-2 2-2 3 2v-2l1-3 5-1 3 5h3l3 1h9v-4h-3l1-3-1-17v-4l-3-21-2-21-2-13-2-19v-13"/><path fill="#2643d7" d="M931 568h4v3l1 7 1 3v9l1 19v46l1 8v6l-1 24h7l3-6 2 2-2 5h2l7-1 3-1 18-1q-11 5-23 6h-2l-7 1-9 1-3-2q-3-12-2-24l1-26v-26l-2-46z"/><path fill="#c9c0ba" d="M1088 922h3q6 8 7 17v2l1 3q6 32-5 61-8 19-23 35l-1-4 4-5 8-9 3-4v-3l1-4 4-1-1-4-2-2-3 2 4-19 2-11 1-2 2-1v8h3v-2h2v-3h-2l1-6v-2l-1-1v-13q-1-11-6-21z"/><path fill="#9aabee" d="m750 363 2 2v13l-2 31-2 30-1 4v6l-1 1-1 8v40h-7l1-19 2-22v-3l6-64v-3l1-10v-6l1-2z"/><path fill="#d7cfca" d="M1078 923q4 3 6 8l1 7h2q8 26 2 52l-4 10-2 7q-4 10-11 17l-4 4q-12 15-28 22l-3 1c-6 3-6 3-10 3l-2 1-1 2q-16 5-32 3-20-2-37-12l-5-4 4-1 4 2v2l4 1h3v2h2l5 1 2 1v2q22 6 44 2l8-4 7-2 14-6 1-2 9-6 2-1 3-5h2v-2h2l1-2 4-5 4-8 2-1 5-13 3-7 2-12v-4q3-15-1-30v-6h-3l-1-5-4-10z"/><path fill="#889ae5" d="M610 392h1l1 13h2l1 10v7h2l1 9v2h2q4 13 3 25l1 3v3l1 6h3q4 6 3 14l2 2h-13q-2-6-2-14l-4-33v-3l-3-22v-3z"/><path fill="#fa7091" d="M836 446h2l-2 29-2 30-1 2h-13l-2-1v-8l2-8 4 2v2l3-2 1-7 2-17 3-19h2z"/><path fill="#3663f2" d="m892 1051 5 5 2 2 1 1v3l-7 4h-2a75 75 0 0 1-48 4l6-2h16l1-4 7-2 4-2 1-2v-2l4-2h5v-2z"/><path fill="#3c6df7" d="m758 857 58 6-1 2-12 8v-3l-5 2v-2l-2 1-8 1-3 1-4-1v-2l-2 1h-6l-2-1-1-5-4-1v-2l-1-2h-5z"/><path fill="#93bafd" d="m738 701 2 1-12 5q-6 3-10 9l-2 2-2 3h-2v2h-2l-2 1v3h-2l-4 7q-4 5-5 9h-2l-2 17-2 8v3l-1 3-3 1q-4-16 1-31 2-10 7-19l2 2-2 9h2l7-13 2-1 1-3 5-3 6-7q7-6 15-7z"/><path fill="#92befd" d="M1033 655q7 4 11 11 3 4 2 10h-2v-3h-2v2h-2l-1 5-1 2-3 1-3 1-2 3-3 1-1 1q-4 4-8 4v2l-7 1 3-5 3 1 1-3 4-6 4-7 1-5q1-5 4-8z"/><path fill="#fed3c0" d="M560 212h7v1l-5 1 1 2h-3l-19 2-4 1-6 1-31 4h-6l-3 1-5 1-8 1h-3l-25 2h-6l-9 1h-8v-1l16-2 31-4 2-1 64-8 2-1 7-1z"/><path fill="#c8ceea" d="M794 751q5 4 7 10l1 2q3 10 2 22l-3 8-1 2q-6 10-15 15-9 4-19 4-10-1-19-6l-4-5 5-1 3 1v3q6 3 13 2l5 1q7 0 13-3 4-1 7-5l3-3q2-4 5-6l2-5v-3l1-3v-14h-2l-2-8-1-2z"/><path fill="#557ef2" d="M839 453h9l2 1v2l6 1 9 1 14 3 19 4h3l11 4 7 2-2 1-2-1-1 2-1-1-7-1h-12l-5-1h-11l-3-1v-4h-11v-2h-3l-10-2-8-2-5-3z"/><path fill="#84b3fd" d="m1017 648 11 4 1 4-2 8-1 3-1 2h-2l1 4v4l-3 3h-2l-3 6-1 2-4 1-4 2h-2l-2 1v-3l-7-1-1 2-2-2 3-1c16-7 16-7 22-13l-1-10v-16"/><path fill="#fca7bc" d="m828 288 10 5q8 7 11 17 3 6 2 12l-4 1-1 4-1 3h-2v-2l1-3v-5l-2-1v-2h-3l-1 9-1 9h-2v-17a49 49 0 0 0-7-30"/><path fill="#7eabfc" d="m964 474 8 1 5 5 7 6v3l4 1 3-2a15 15 0 0 1 13-2q4 4 6 10l1 5h-2l-5-1-2 1-6 3h-3l-1-6h-2v-2l-2-1q-6-4-11-9-4-6-9-7v-2l-4-2z"/><path fill="#87b4fb" d="m276 405 4 1q3 5 3 12l-1 3q-6 3-14 2l-4 1-9 3c-16 5-16 5-21 8l7-7 3-1 3-1 6-1 3-1v-3h2v-2l2-4 9-6 1-2z"/><path fill="#5f94fb" d="M925 849v2l-4 3-10 10-1 1h-2v2l-13 1h-3l-30-2-29-1-37-3h-3l-13-2v-1q35-2 69 4l28 1h4l14-1h10l5-4h2v-2l2-1q4-2 7-6z"/><path fill="#5b91fc" d="m771 678 2 1 5 3 1-2 5 2v1h-18q-21 0-40 10l-12 9-2 2a86 86 0 0 0-24 79v11q-5-12-5-25 0-17 5-34l1-5 1-2 4-4 1-4h2l1-4q11-17 27-26l2-1q10-6 20-6l1-3 7 1v-2h2v2l3-1 4 1v-2l7 2z"/><path fill="#f89e86" d="M284 419h2v13l-2 2h3l1-3 2 4-1 7h8l-3 4h5l1-5 4 2-1 3h5l2 1h2v2l16 3v2h8l1 2-51-5q-3-7-3-15v-3z"/><path fill="#4671f5" d="m993 569 2 1 1 5v10l2 57v6l1 4 1 9v3l1 6 2-1 3-1 3-2 8-1v3l-6 1h-2l-3 3h-2l-2 4-3-4v-4l-1-2h-2l-3-30v-67"/><path fill="#bbcaf7" d="M756 394h1l-1 23-2 14v9l-1 23-1 15v3l1 7 5 4v2h3l2 3 4 1h11l2 1h2v2l4 1h4v1l-14-1h-3l-17-3v-2h-2q-4-5-5-11v-12l6-72z"/><path fill="#4d7cf8" d="M994 556h2q2 4 3 10v13l1 57c0 21 0 21 2 27l11-1v-2l4 1 1 4-6 1-8 4h-3q-2-7-3-16l-1-4v-22z"/><path fill="#d3cbc7" d="m875 945 2 8v7q-3 20 2 40l1 3 1 5h2l2 6 2 4 3 8q1 5 5 8l3 6-1 3c-9-13-9-13-11-21v-2h-2l-1-5-2-5-2-1-1 3h-2v-8l-3-1q-2-12-2-24v-4q0-15 4-30"/><path fill="#91a0e6" d="M604 343h1l1 10v3h2q3 10 2 19h3l1 5 1 4 2 23 3 13 1 5v15h-1v-7h-2l-1-7v-4h-2l-1-17h-2l-1-6v-2h-2l-1-9-1-3-2-21v-2z"/><path fill="#cbd3f3" d="M744 397q3 4 2 8l-2 23-5 63v3l-1 3h-5v-4l1-3 1-4 2-32 2-17 1-3v-2z"/><path fill="#d9d1cc" d="m956 881 2 1-7 6-2 2-11 6-2 4-3 3q-20 21-26 48-4 21-1 42h-2q-5-22 0-44 4-15 12-28l4-9 1-2h2l2-4 2-3h2v-2h2v-2c16-15 16-15 25-18"/><path fill="#77a8fc" d="M995 703q-13 7-27 8l-5 1-1 1q-34 8-70 6l-2-1-5-1-8-2h-5v-1h10l64-1h7v-2l5-1 3-1h4l3-1 16-3 2-1z"/><path fill="#a7b8f1" d="M750 359h2q3 4 3 9v20h-2v2l-1 14-2 30-1 12v15l-1 4v5l-2 2q-1 13 3 25l-4 1q-2-19-1-39l1-3v-6l1-1 1-9v-3l4-62v-2z"/><path fill="#5d87f6" d="m850 454 25 3 3 1h2l8 3 31 5 1 1 16 2v2h3v2h3l6 1v2l4 2-4 1-2-3-1 2h-3v-2q-9-2-19-2v-2l-6-1-14-4-30-6-23-5z"/><path fill="#538afb" d="m795 682 3 1 6 1h3l5 1h5l9 1 39 5 5-1 3 1 2 1 1-2 5 1q5 3 9 2l3-1v2h4l3 1h12v-6h1v7l2 1-40-2-82-9h-2l-5-1-1-2z"/><path fill="#fa8a73" d="M611 411h1l1 6v4l7 64h-8l-1-12v-7l1-4v-10h1l1-14v-3l-1-5h-2l1 7-2-2v-7l1-1v-16"/><path fill="#f99382" d="M598 306h1l1 6v3l3 20 1 11 4 28v2l1 18-2 2-3-17-1-6-3-16-2-34z"/><path fill="#4f7cef" d="m282 421-1 4-13 2-2 1-12 3v2h-2v2l-3 1-2 1 1 5-1 2q-6 0-11-4l-2-1v-4q14-8 31-11l2-1 1-1z"/><path fill="#2e50db" d="M835 475h2v3h3l2 4 1 3 1 4-4 5-2 3v7h6l4 1q7 2 14 2h3l1 3h-11l-3-1-19-1-1-2v-3l1-4v-9z"/><path fill="#77aafc" d="m925 556 5 10 1 4 2 13v105h-1v-9l-2-84v-6h-3v-2h3v-6l-2-7-2-8-1-2-1-6z"/><path fill="#4470ec" d="m281 424 2 2v5l-1 2v2-2l-1-2-5 1h-7l-9 4-2 1v-3q-6 3-6 6v2l10 3 5 1-1 2q-10 0-19-4v-7l5-2v-2h2v-2q11-6 24-7z"/><path fill="#fdab93" d="m587 232 3 2 1 7h-3l-2 1v13l1 7 4 37 3 30 1 1 1 23h-1l-1-5v-6l-3-18-3-23v-3l-5-57v-7z"/><path fill="#5d91fb" d="m716 836 13 7 10 4 8 3 11 2 11 4 1 1 4 1h3v1l-20-1h-6l-2-1-4-1-2 2-2-5-3 2v-3h-2l-1-2-8-4-6-1-1-5h-2v-2l-3 1-1-2z"/><path fill="#558afa" d="M817 864h8l41 1 4 1c9 1 9 1 13 3h-3l-6 2-7-1-10 1-2 1v-2q-9-2-19-2l-8-1-6-1h-6z"/><path fill="#cfc6c1" d="M1007 869h15q6 0 13 3v2l5 1 8 3 2 1-4 1-5-2a98 98 0 0 0-76 2l-1 1h-6l7-5 3-1 8-3q16-4 31-3"/><path fill="#4a7df6" d="M930 864v2l2 1-7 6-2 1-2 2-1 2-6 4 1-11-22 1h-4l-6 1-6-2v-1l18-1q18-3 35-5"/><path fill="#fdaf96" d="M596 354c5 9 4 20 5 29l1 14c7 46 7 46 6 68h-3l1-3-1-17v-4l-3-21-2-21-2-13-2-19v-13"/><path fill="#7fabfc" d="M766 730v2l-6 1v2h8l5-1 6 2 8 3h2v2l6 4-6 1-8-5a36 36 0 0 0-36 1q-6 5-11 12l-3-1 3-6 4-2 2-3 2-2h3v-2l5-1v-2l7-2 4-2z"/><path fill="#3155e2" d="M931 568h4v3l1 7 1 3v9l1 15v25l-1 13-3-4v-16l-3-48z"/><path fill="#e6e0db" d="m892 908 1 4-3 5-5 14-3 7-2 11h2l1-5h1l-2 20v3l-1 3h-2v-8l-1-1v-16h-2q5-19 15-36z"/><path fill="#fdaf98" d="m488 345 5 3q3 8 2 15-2 9-7 16l-3 2-1 4-2 3h-5l2-3 5-9 1-2q4-10 3-20v-9"/><path fill="#4b7bf1" d="M871 991h1l1 5a132 132 0 0 0 20 54l-1 2-4-1-1-5h-2l-2-1-1-5-3-1v-7l-1-5h-3l-1-5q1-5-2-11-3-9-2-18z"/><path fill="#3a63ec" d="M888 871h27c-1 12-1 12-3 15l-3 2-2 3-3 2-3 4-2 2h-3v-4l2-1 1-2 4-4 2-1v-2h2l-1-3 2-1v-2l-1-2 2-2-4-1-2-1h-2l-2 1v-2h-2l-3 1h-5z"/><path fill="#7daffc" d="m1017 648 1 2 2 1 3 5v7l-1 2-2 7-3 9-5 2-1 3-4 3-2 2-2 1v-3l-7-1-1 2-2-2 3-1c16-7 16-7 22-13l-1-10v-16"/><path fill="#79abfc" d="m1043 676 3 1q-1 6-6 11l-7 3h-2v2h1l3 1-2 1-3 1v2l-14 2h-3l-5 3h-9l1-2q14-5 28-8l2-1 2-4 2-1 1-3h2l2-1 1-4h2z"/><path fill="#3d70f8" d="M880 1054h7c-11 12-11 12-16 14l2 1-1 2 2 1c-22 0-22 0-31-2l6-2h16l1-4 7-2 4-2 1-4z"/><path fill="#fed2bf" d="M382 236v1l-7 1-2 1-1 2-5 1-3 1h-3l-3 1q-16 2-32 0v-1l4-1h3l3-1h3l24-4h3z"/><path fill="#ebe6e2" d="M893 908h6l-1 3h-2l-5 16-2 3-3 6-3 11-1 2h-2q0-8 3-14l2-9 6-12 1-4z"/><path fill="#4c74ee" d="m838 455 21 4q8 4 15 4 12 1 24 7l-4 1h-2l-14-1-3-1v-4h-11v-2h-3l-10-2z"/><path fill="#f36287" d="M833 475h2l-2 32-9-1 4-1 1-9q0-9 2-19z"/><path fill="#d6cdc8" d="m875 945 2 8v7l-1 13-2 18h-3q-1-24 4-46"/><path fill="#d4dbf6" d="m718 489 16 2-1 6h-11l-3-1-16-2-14-1v-1q16-2 32 1z"/><path fill="#8fbafc" d="M258 413h5l-2 2-3 6h-2v3l-8 3-14 7v-5l5-3 2-1q3-4 9-6h3l2-4z"/><path fill="#baafaa" d="M1008 871h4q12-1 22 3l2 1 14 5v2l3 1-3 1-5-2q-25-11-53-8l-10 1q12-6 26-4"/><path fill="#d4cbc6" d="M1009 978q10 0 18 3l2 1 1 2h-2v2h-2v2q-10 1-18-2l-1-4z"/><path fill="#78a7fc" d="m730 755 3 1-1 4q-4 11-2 21l2 7h-3l1-5h-2v2h-2v2h-2l-1 2v-4l2-1v-16l-2-6v-2l6-3z"/><path fill="#375bea" d="m992 662 3 3 1 6q1 6 3 10v3l3 1q-11 7-23 6l1-2 10-3 3-1v-6z"/><path fill="#d4d8ee" d="M790 801v3l-4 3-2 2q-6 3-13 3h-7q-9 0-17-4l-4-4 1-2h6l1 4q6 3 13 2l5 1q6 1 11-2c7-3 7-3 10-6"/><path fill="#ef9f8d" d="m476 465 7 1 2 1 1 2 4 1h11l2 1h2v2l-35-2-4-1h-3l-4-1h-2v-1l6-1 3-1h9z"/><path fill="#fbc0d0" d="m828 288 10 5 7 9-3 1-4 3-1 8v2h-1l-1-6q1-10-5-18l-1-2z"/><path fill="#f2ab98" d="M284 419h2v13l-2 2h3l1-3q3 4 2 7v8l-1 5h-3l-2-7v-2q-2-11 0-23"/><path fill="#f58b7c" d="M611 411h1l1 5v6l1 3 3 25v3l1 3v3l-1 6-1-2-1-2h-3v-9h1l1-14v-3l-1-5h-2l1 7-2-2v-7l1-1v-16"/><path fill="#709bf6" d="M282 419v2l-6 1q-8 1-14 3l-7 2c-16 5-16 5-21 8q2-4 6-6a163 163 0 0 1 42-10"/><path fill="#92a1e8" d="m621 440 3 9q2 15 9 29l2 7 2 1-7-1v-6l-2-9h-3l-3-9v-9z"/><path fill="#fb83a5" d="M826 417v2l1 2 2 1v5h-2l1 9 1 10-1 3-2 7-3-2v-10z"/><path fill="#c6ccea" d="M794 751q6 5 8 11 3 10 1 20l-2 5h-1v-20h-2l-2-8-1-2z"/><path fill="#dde0f4" d="m786 746 7 2 3 9 1 4 1 6h2v14c1 7 1 7-1 10l-4 5-1-3 2-5q3-9 1-17-2-15-11-25"/><path fill="#f7f9fe" d="M753 739h2l-2 1v3q-3 3-7 3-4 2-6 5h-2v7l-6 3 1-7q6-9 15-14z"/><path fill="#d4cbc5" d="m900 1047 5 2 7 8v2l9 6 3 3 4 6q-4 0-7-3l-8-8-4-4-2-1v-3h-2v-4l-4-2z"/><path fill="#3a66f5" d="m1017 665 2 1v8q-4 6-10 8l-3 1-2-2 1-2-2-1 8-6h3l2-1z"/><path fill="#6392f8" d="M1013 839v2l6 1 5 1v1h-37l4-1 1-2 7-1z"/><path fill="#7f90e2" d="m619 465 1 3h2l2 1 1 5 1 2v9h-6l-1-10v-10"/><path fill="#3d6cf5" d="m997 666 5 9 2-2 5-5h8l-1 4-6 2-3 2-6 3h-2q-2-6-2-13"/><path fill="#d6cec9" d="M969 990q9 0 17 2l2 1-1 7-3 2v-2l-1-3h-3v-2l-9-1-2-1z"/><path fill="#5e8af2" d="M280 421v3l-9 2-17 2-2 1v2l-6 1-9 3-3 4v-4q14-8 31-11l2-1 1-1 4-1h8"/><path fill="#eeeaeb" d="M486 344q4 8 3 16 0 12-7 21-3 6-9 8l5-8q7-8 8-18z"/><path fill="#d5cdc8" d="M1089 917h2q10 20 10 41v17h-1v-6l-3-27v-3q-1-8-6-15z"/><path fill="#8ca0ea" d="M741 467h1v9l1 22h-5l1-20v-6l1-2v-2z"/><path fill="#315bf0" d="M888 871h27l-1 11-3-1v-2h-2v-4l-4-1-2-1h-2l-2 1v-2h-2l-3 1h-5z"/><path fill="#fddbcc" d="M556 213h-2v2h-4q-6 0-13 2l-16 2-8 1-6 1h-2l-2-2z"/><path fill="#e6e0dc" d="m1061 862 10 3v2l6 2 2 1v2l2 1h2v2h2v2h2v2h2l4 5v2l-4-1-1-3-5-3v-2h-2l-1-3-4-2-15-9z"/><path fill="#79a9fc" d="m1017 648 1 2 2 1 3 5q1 7-2 14l-1 2h-1q-3-12-2-24"/><path fill="#365ce5" d="m838 457 7 7v2l-3 3-2 6h2v6l-2-1v-2h-3z"/><path fill="#3f72f4" d="m881 1031 8 11 1 2 1 2 1 2 1 2-1 2-4-1-1-5h-2l-2-1-1-5-3-1z"/><path fill="#cfc6c0" d="m1050 880 6 1 5 4 13 12 5 5 6 7-1 2-2-2q-10-12-23-21l-4-4-1-1-4-1z"/><path fill="#fdd0be" d="m427 230-2 3h-5l-18 3-13 1-4-2 13-2h3c17-3 17-3 26-3"/><path fill="#e2e5ed" d="m987 845 2 1h2-2l-3 2-4 1-15 4-11 3-2-2 12-4 3-1 3-1 3-1z"/><path fill="#c3cbf1" d="M737 475h3l-1 16v3l-1 3h-5v-4l1-3 1-4 1-4z"/><path fill="#d5cdc8" d="m1030 992 4 2 2 2v3l-7 6-7 1-1-3-2-1 7-1 2 1v-4l1-3v-2z"/><path fill="#cfd5f4" d="m747 361 2 1v16l-2 21h-1q-2-18 0-37z"/><path fill="#f3f6fe" d="m873 1073-3 1-1 2h-25v-3l5-1h11z"/><path fill="#f7f8fb" d="M756 738h10l10 1v3l2 1q6 2 10 7v2h-3l-4-4h-2l-1-3-1-2q-7-2-16-2l-5-1z"/><path fill="#d4ccc6" d="m1039 950 2 1-2 2-6 9-2 3-3 1-1 2h-7l7-7z"/><path fill="#5b8dfb" d="m679 1050 2 3h6l4-1 8 5-28-2h-3l-5-1v-1l7-1z"/><path fill="#578efa" d="m288 1010 30 3 3 2-8 1h-5c-12-1-12-1-17-3z"/><path fill="#3d69e7" d="m283 426-1 9-1-4-5 1h-7l-9 4-2 1v-4q4-3 8-3l3-1 3-1h2z"/><path fill="#afc3f7" d="M817 490h1v16h-7l-3-1h-5v-1l4 1 4-1 2-8 3-5z"/><path fill="#e87c79" d="M618 467h1l1 18h-8l1-4v-3l1-2h3l1-4z"/><path fill="#6c93f6" d="M839 449h2l2 1 3 1h5v2h6l20 4v1l-17-2q-11-2-22-2z"/><path fill="#fdd0be" d="M326 244v1l-6 2h-2v1l-9 1-15 1-1 1h-5q4-3 9-4 14-3 29-3"/><path fill="#588cfb" d="M780 859q18 0 36 2l1 1 4 1h3v1l-17-1h-2l-25-3z"/><path fill="#7faefd" d="M993 703h2q-14 8-32 9h-10q6-3 11-3l3-1 16-2q5-2 10-3"/><path fill="#bdbdcd" d="m875 945 2 9v2l-2 6v3l-1 2h-2v24h-1q-1-24 4-46"/><path fill="#fdc8b4" d="m268 311 2 3h2v2h-2l1 5 2 1v2h-2v5l3 1v13l-1 3h-1l-1-6-1-4v-2z"/><path fill="#2c48dc" d="M978 691q-8 4-18 5l-14-1v-1l10-2h3z"/><path fill="#eba095" d="m308 451 20 1v2h8l1 2-22-1h-3l-2-1h-2z"/><path fill="#f794ae" d="m829 395 3 3q0 10-3 19l-2-1q-1-10 1-20z"/><path fill="#6198fc" d="m247 1001 1 2h4l8 1 6-1h2l1 3h-2l-11 2h-2l-4-2-5-2z"/><path fill="#96c1fd" d="m709 706 1 4-4 4-1 4-2 3-4 1-1 3h-2q2-5 6-11l2-2z"/><path fill="#fda68b" d="m300 441 4 2v3l-2 2h-9v2l-4 1 1-9h7l-3 4h5z"/><path fill="#2e4ee0" d="M935 590h1v7l1 3 1 21v8l-1 14h-1v-9l-1-4v-40"/><path fill="#7ca4fb" d="M940 465q6-1 11 1l13 8-12-3-7-2-3-1v-2z"/><path fill="#5e93fb" d="m392 1018 11 4-1 2h6l3 1h3v1h-19q-2-2-2-5z"/><path fill="#b6bfe9" d="M803 769h1c1 17 1 17-3 24l-5 8-1-4 4-9q4-7 4-16z"/><path fill="#f09f8b" d="M576 478h9v1l4 1h4v-2l2 1-1 2h8l1 1 4 1h3v1l-24-2h-4l-3-1z"/><path fill="#b6c1f1" d="M595 264h2l5 9v10l-1-2-4-4-3-5v-6z"/><path fill="#9dc1ef" d="m522 475 25 2h2l6 1v1h-30l-2-1z"/><path fill="#d0c6c1" d="m928 1074 7 2v2h3l3 1 2 2q5 5 11 7l-4 1-5-2-3-2-2-1-1-2-6-3-2-1v-2l-3-1z"/><path fill="#568cfc" d="m688 794 2 1 2 5 14 26-3-1-4-5-2-3-1-2v-2l-2-1q-5-8-6-18"/><path fill="#fc917e" d="m591 274 3 1 1 7v2l1 3v8h-1l-2-6-2-3-1-6v-5z"/><path fill="#436ceb" d="m915 871 6-1 2 1 1 3-4 4-2 1-4 3z"/><path fill="#3152e5" d="m993 679 3 1 1 5 2 1q-9 5-18 5h-2l1-2 10-3 3-1v-6"/><path fill="#e48b91" d="M611 411h1l1 7v3l2 16 1 2-1 10-2-13v-6h-2l1 7-2-2v-7l1-1v-16"/><path fill="#f86a8d" d="m828 495 1 7-1 3h-4v-2h-3l-1-5 6-2z"/><path fill="#2757e3" d="m282 432 2 7v7l-6-4-1-6 4-2z"/><path fill="#fd9883" d="m589 238 2 6v9l-3 1-2-5v-7z"/><path fill="#fdbea6" d="m457 318 3 1 9-1 2 1v2l-3 3-5-1q-6-2-12-2h-5v-1l10-1z"/><path fill="#f1f6fe" d="M571 1043h3l5 1v1h-6v2h-15v-2q7-2 13-2"/><path fill="#77a2fa" d="M267 1011h19l8 2 7 1v1l-21-1-4-1h-4l-3-1h-2z"/><path fill="#d3ccc7" d="m1004 997 5 1-2 2-1 3 1 2v2l-2 4-2 2-1 1h-1l2-15z"/><path fill="#598dfa" d="m746 854 23 2 1 1 4 1h3v1l-23-1h-3l-2-1h-2z"/><path fill="#b9c4eb" d="M753 810h2l26 1-2 2q-11 2-22 0z"/><path fill="#85b2fb" d="M925 556q5 7 6 16v6h-2l-2-7-1-3-2-10z"/><path fill="#3a6bf5" d="M848 867h10l2 1 16 1-1 2-10-1-10 2v-2l-7-2z"/><path fill="#3c6cf7" d="m817 864 29 2-1 2h-9l-8-1-6-1h-6z"/><path fill="#c3b8b3" d="m983 873 2 1v2h-5v2l-13 2 4-4z"/><path fill="#9bc3f0" d="m478 471 29 2v1h-24l-5-1z"/><path fill="#f492af" d="M826 417v2l1 2 2 1v5h-2q0 7 2 12l-3 1-2 4z"/><path fill="#ec8f8c" d="M606 370h1l1 8v2l1 14-2 2q-2-8-2-17v-3z"/><path fill="#fdc2af" d="m459 340 8 6 2 2 2 4v10h-1l-1-6v-2h-2l-2-5q-2-4-5-5z"/><path fill="#375de6" d="M931 568h4v3l1 7 1 3-2 4-2-1-1-5-1-3z"/><path fill="#d4d8ef" d="M799 767h1v14c1 7 1 7-1 10l-4 5-1-3 3-7 2-16z"/><path fill="#2f59f0" d="m1017 665 2 1v8l-1 2-5 1h-2v-3l2-1 3-2z"/><path fill="#f9b7cb" d="m841 298 4 4-3 1-4 3-1 8v2h-1v-15l4-2z"/><path fill="#f29690" d="M595 280h1l1 8v2l1 15-4-1v-9l1-6v-9"/><path fill="#f7a79c" d="M591 244h1l1 8v2l1 15h-1l-1-7-4 1v-4l1-2v-2h2z"/><path fill="#c2c0ce" d="m882 926 2 4-2 5-3 7-1 3h-2l4-13 1-3z"/><path fill="#e99193" d="M603 345h1l1 8v2l1 15-3-2q-2-11 0-23"/><path fill="#f16d90" d="M819 494h1l1 7v2h3v3l3 1h-7l-2-1v-11z"/><path fill="#3f4ecf" d="M835 475h2v18l-3-2v-10z"/><path fill="#e9effd" d="m888 1067 3 1-1 3-4-1-2 1-1 3h-5l-4-3 7-2 2-1z"/><path fill="#cac6cc" d="m892 908 1 4-3 6-4 8h-3q2-7 6-12l2-4z"/><path fill="#f35b85" d="M833 477h2l-1 18-3-5q0-7 2-13"/><path fill="#6595fb" d="m470 1029 1 4h-9l-3-1h-6v-1c12-3 12-3 17-2"/><path fill="#7fabfc" d="M208 973h1l1 6 1 2 4 1 2 6h-3l-4-5-3-3-1-3z"/><path fill="#6a99fb" d="m1017 656 4 2v7l-1 7h-1q-2-8-2-16"/><path fill="#e7f0fc" d="M858 437h-2v3l-16-1q4-2 10-3h2z"/><path fill="#7da9fa" d="m986 690 2 1-3 1 1 2h-4l-7 2-8-1 9-3z"/><path fill="#eb6f9a" d="M836 446h2l-1 20h-1l1-16h-2v5h-2v-6h2z"/><path fill="#90b2f3" d="m285 447 1 4-6 1-5 2-1-2h-7l-1-4 19 2z"/><path fill="#a5cbfd" d="m235 440 11 4-1 4-3 1v-2l-1-3h-5z"/><path fill="#fee8ee" d="M843 398h1q3 13-2 26h-1z"/><path fill="#d6e3fd" d="m303 1015 19 2-5 2h-8v-3h-6z"/><path fill="#ed9b87" d="m380 457 2 2 3 2h-12l-6-1v-2z"/><path fill="#eef4fe" d="M651 1052h9l3 1v4h-10l1-4z"/><path fill="#eb867c" d="M618 467h1l-1 11-1 2h-3v4l4 1h-6l1-4v-3l1-2h3l1-4z"/><path fill="#e7e1dd" d="m1097 891 4 2 1 3h2l2 7-4-2z"/><path fill="#d3cac4" d="m956 881 2 1-7 6-2 2-2 1-2 2-6 3 1-3 5-4 8-7z"/><path fill="#5386f9" d="M763 814h13l-2 3h-12z"/><path fill="#385de5" d="m925 553 4 2 3 8h-4q-3-4-3-10"/><path fill="#ecf2fe" d="m469 1033 15 1v1q-6 3-12 2l-3-2z"/><path fill="#eef4fe" d="m422 1028 15 1v1q-6 3-13 2z"/><path fill="#eff4fe" d="M611 1048h7l3 1h3v1h-7v2h-7z"/><path fill="#f1f5fd" d="m409 1026-1 3-11 1v-2l-2-1z"/><path fill="#dde6fa" d="M729 766h1l1 6 1 8 7-1-1 2-5 1-2 2-2-3v-15"/><path fill="#ef8b89" d="M608 397h2l1 14-2 1-1-10v-5"/><path fill="#fdc7b1" d="m273 346 3 1v7l1 4h-2l-1 3z"/><path fill="#edf3fd" d="m328 1018 13 1-3 3h-7l-2-1z"/><path fill="#ced4ef" d="m794 751 5 5v11l-4-10v-3z"/><path fill="#eff4fe" d="M631 1050h7l4 1h3v1h-6v2l-7 1v-3z"/><path fill="#d7cfca" d="m1043 944 7 1v3l-3 2-2-3-3 2z"/><path fill="#e7e2df" d="M947 861h3v2c-5 3-5 3-8 3v3l-4 1-2 1h-2q5-5 11-8h2z"/><path fill="#a0c9fd" d="m624 487 15 2h-5v2h-4v-2l-6-1z"/><path fill="#fd7898" d="m823 460 3 1-1 5-1 8h-2v-9zm1 12 2 1Z"/><path fill="#eff4fe" d="m517 1038 15 1v1l-12 2-3-1z"/><path fill="#e2dad7" d="M883 926h2l-2 12-2 4-1 2-2-4 3-5q3-4 2-9"/><path fill="#9dc6fc" d="m1041 663 3 3 1 5h-3l-3-4z"/><path fill="#fdae97" d="M453 340h5v1h-8l-2 4-5-1 2-3z"/><path fill="#eb9694" d="M598 306h1l2 22h-1q-2-7-2-15v-7"/><path fill="#d7cfc9" d="M932 1026c8 4 8 4 11 8l2 5q-5-1-8-6l-1-3-4-2z"/><path fill="#dbd3ce" d="M886 1016q5 6 7 14h-3l-2-5-1-3z"/><path fill="#f7f7fb" d="M731 762h1v6l1 5-2 7h-1v-9z"/><path fill="#a8baf2" d="M818 499v7h-5l1-6z"/><path fill="#79a4f7" d="M839 439h7l-1 1-2 4-1 2-3 1z"/><path fill="#f9c9bd" d="M458 339v1l-10 1-3 1-2 5-3-1 4-6q7-2 14-1"/><path fill="#3c67f5" d="m896 1058 4 1v3l-7 3-2-2h2v-2h3z"/><path fill="#cad5f4" d="m733 491 1 4-1 2h-7l-4-1h-3v-1l10-1h3z"/><path fill="#f0e2e0" d="M486 344q3 6 3 14v6h-1l-1-10-1-1v-9"/><path fill="#eef3fe" d="M735 1061h5v1l-5 1v1h-8l-1-2z"/><path fill="#e3ecfe" d="m703 1058 18 1v1h-16l-2-1z"/><path fill="#a3c4f5" d="M590 482h4v1h-2l-3 1-1 2h-7v-2q4-2 9-2"/><path fill="#a8beea" d="m286 451 15 1v1l-5 1h-9z"/><path fill="#fdf3ed" d="M277 388h1l1 11v5h-3v-4h2v-6h-2z"/><path fill="#fee0d3" d="M556 213h-2v2h-17v-1l7-1h12"/><path fill="#4573f1" d="m888 1043 5 8-4 1-2-7z"/><path fill="#3355e0" d="M852 507h13l1 3-14-2z"/><path fill="#fdccbb" d="m457 318 4 1 2 3h-8l-3-1h-6v-1l10-1z"/><path fill="#d8cec9" d="m877 943 2 2v6l-1 2-3 1v-4l1-3z"/><path fill="#dfe3f1" d="m741 797 6 2-3 4-4-2z"/><path fill="#9fc7fd" d="m1033 655 8 7h-5l-3-5z"/><path fill="#b6c1ef" d="m799 758 3 4 1 7-4-2v-9"/><path fill="#a0beeb" d="m380 461 16 1v1l-5 1h-6v-1h-2l-3-1z"/><path fill="#f1f6fd" d="m951 446 1 2 4 1-1 2h-7l-2-1v-3z"/><path fill="#aac8f9" d="m694 493 15 1v1l-5 1h-6v-2z"/><path fill="#b2beec" d="M738 492v5h-5v-4z"/><path fill="#7d96e7" d="m614 425 3 4v5l-1 3v2h-1z"/><path fill="#f6968b" d="m592 265 1 2 2 3v8l-3-4z"/><path fill="#4379fa" d="M806 1064h6v4h-9l4-2z"/><path fill="#dad2ce" d="m898 1040 1 2 1 2 2 1 2 1 2 4-6-3-2-3z"/><path fill="#e5b5b1" d="M282 411h1v15h-1l-1-6v-3z"/><path fill="#edeae4" d="m905 893 4 1-4 5h-3l1-4h2z"/><path fill="#fdd4c3" d="m339 242-3 1v2h-5l-3-1h-2v-1z"/><path fill="#f2f6fe" d="M797 1068h8l-1 3h-9z"/><path fill="#5a8efa" d="M477 1030h5l-1 4h-6z"/><path fill="#2c47e0" d="m990 688-2 2-5 1h-4l1-2z"/><path fill="#7daafd" d="m1011 502 2 2 1 5v4l-3-3 1-5h-2z"/><path fill="#f6a6bd" d="M834 335h1l1 5 1 2v2l-2 3-1-7v-5"/><path fill="#fdf1ed" d="m438 323 2 1-1 2h-3l-1 3-4-1 3-3 2-1z"/><path fill="#eaeffd" d="m896 1063 3 1-5 4h-2l-2-2z"/><path fill="#f5f3f2" d="M1124 1011v10l-3 1z"/><path fill="#4c83fc" d="m720 840 7 4 1 2-7-1z"/><path fill="#c4ccef" d="m745 805 6 1 2 4q-5-1-8-5"/><path fill="#fdeaf1" d="M840 426h1v7h2v4h-3z"/><path fill="#fbac95" d="m473 389 3 1-9 5v-3z"/><path fill="#c0b5b0" d="m973 1101 9 1 3 1v1h-11z"/><path fill="#3a6af5" d="M877 870h11l-3 3-4-1h-2l-2-1z"/><path fill="#dde2f5" d="M732 787h3l1 4v4z"/><path fill="#f26891" d="M835 470h1v5l-4 2-2 2 1-5 3-1z"/><path fill="#fc789b" d="M837 431h2v8l-1-3h-2z"/><path fill="#e8eefd" d="M748 1063h11v1h-9v2l-3-1z"/><path fill="#e4dfdc" d="m1007 983 1 3h6l-3 2h-5z"/><path fill="#c1becd" d="m892 908 1 4-4 4 2-6z"/><path fill="#4378fa" d="m746 854 4 1h3l4 3h-8l-2-1z"/><path fill="#f17d66" d="M614 480h4v4h-4z"/><path fill="#afd1fe" d="m233 416 4 1-2 2h-7z"/><path fill="#fcac96" d="m434 390 8 4-7-1z"/><path fill="#f8b7a6" d="m488 364 2 4-1 4-3 1z"/><path fill="#fdcfbd" d="M271 334v2l1 2h2v4l-1 2v2h-1l-1-6v-6"/><path fill="#cbc9d3" d="m897 901 1 4-3 1v2h-2z"/><path fill="#c5cff5" d="m794 751 5 5-1 2-3-1z"/><path fill="#4e6fec" d="m896 1058 4 1v3l-3 1z"/><path fill="#dad1cc" d="m881 936 1 2-2 6-2-4z"/><path fill="#94befd" d="m978 461 6 3-4 2-2-2z"/><path fill="#4b73e9" d="M894 899h5l-4 5z"/><path fill="#cfcfdc" d="m902 895 1 2-1 3-4 1z"/><path fill="#4377fa" d="m759 862 2 2v4h-2v-2l-2-1z"/><path fill="#477dfc" d="m741 852 5 1-2 5z"/><path fill="#6198fc" d="M1027 837h2l1 3-5 2z"/><path fill="#da7aa6" d="M824 504v2l3 1-9-1z"/><path fill="#89b3fd" d="m1005 491 3 1 1 4-4-1z"/><path fill="#99bffc" d="M924 447h7l-8 3z"/><path fill="#f5efed" d="m476 330 4 2 1 3-4-1z"/><path fill="#dbd3ce" d="m935 1076 5 1 1 2-6-1z"/><path fill="#cfc6c1" d="m922 1071 5 1 1 2-5-1z"/><path fill="#bcb8c4" d="m883 1029 2 2v5l-3-4z"/><path fill="#4366e8" d="m911 881 3 1-4 4z"/><path fill="#f1f6fe" d="m1005 485 3 2-2 4-2-5z"/><path fill="#9ac1fd" d="m197 454 3 1-1 4h-2z"/><path fill="#c0c8ef" d="M735 489h3v3l-4 1z"/><path fill="#b8b5c2" d="m892 1048 3 1-1 4z"/><path fill="#e2edfd" d="m734 753 1 4-3 1z"/><path fill="#fbc1b0" d="M441 343h2v4l-3-1z"/><path fill="#f7e9e6" d="m481 335 3 3v2l-3-1z"/><path fill="#f6f4f3" d="m903 1064 3 3-2 1-2-1z"/><path fill="#acb8ea" d="M801 790v3l-2 2-1-3z"/><path fill="#a6b3e8" d="M735 494h3v3h-3z"/><path fill="#fba58a" d="m414 451 5 1-3 2-2-1z"/><path fill="#fbc0ad" d="m439 368 4 1-2 3z"/><path fill="#fdc7b5" d="m428 327 3 2-3 2z"/><path fill="#fdc9b3" d="m273 263 2 3-4 1z"/><path fill="#dbd5d1" d="m1078 1076 3 1-4 2z"/><path fill="#eef0fa" d="m788 752 4 2-3 1z"/><path fill="#a9cdfc" d="m1038 659 3 3h-4z"/><path fill="#fcf2ef" d="m467 324 4 2-4 1z"/><path fill="#c0bcc4" d="M890 1045h3l-1 3-2-1z"/><path fill="#537cea" d="m888 1043 2 4-3-1z"/><path fill="#95befd" d="m996 476 2 1-1 3-2-2z"/><path fill="#fbcbd9" d="m828 288 4 1-2 2z"/><path fill="#2c4cdd" d="M947 655h2l-1 3-2-2z"/><path fill="#9ac1fd" d="m986 467 3 1-2 2z"/></svg>