<?xml version="1.0" standalone="no"?><!DOCTYPE svg PUBLIC "-//W3C//DTD SVG 1.1//EN" "http://www.w3.org/Graphics/SVG/1.1/DTD/svg11.dtd"><svg t="1778252349964" class="icon" viewBox="0 0 1024 1024" version="1.1" xmlns="http://www.w3.org/2000/svg" p-id="4326" xmlns:xlink="http://www.w3.org/1999/xlink" width="200" height="200"><path d="M590.2 790.6H351.2c-38.4 0-69.6-31.2-69.6-69.6h378c0 38.4-31 69.6-69.4 69.6z" fill="#FEFE71" p-id="4327"></path><path d="M417.8 721h-136.2c0 38.4 31.2 69.6 69.6 69.6h136.2c-38.4 0-69.6-31.2-69.6-69.6z" fill="#D6CD1E" p-id="4328"></path><path d="M470.6 721c-104.4 0-189-84.6-189-189v-83.2h378V532c0 104.4-84.6 189-189 189z" fill="#FE8E46" p-id="4329"></path><path d="M418.2 532v-83.2h-136.8V532c0 104.4 84.6 189 189 189 24.2 0 47.2-4.6 68.4-12.8-70.4-27.4-120.6-95.8-120.6-176.2z" fill="#E56823" p-id="4330"></path><path d="M470.6 735c-112 0-203-91-203-203v-83.2c0-7.8 6.2-14 14-14h378c7.8 0 14 6.2 14 14V532c0 112-91 203-203 203z m-175-272.2V532c0 96.6 78.6 175 175 175s175-78.6 175-175v-69.2h-350z" fill="#463218" p-id="4331"></path><path d="M590.2 804.6H351.2c-46 0-83.6-37.4-83.6-83.6 0-7.8 6.2-14 14-14h378c7.8 0 14 6.2 14 14 0 46.2-37.4 83.6-83.4 83.6z m-292.8-69.6c6.2 23.8 28 41.6 53.8 41.6h239c25.8 0 47.6-17.6 53.8-41.6H297.4zM664 661h-43.4c-7.8 0-14-6.2-14-14s6.2-14 14-14H664c12.4 0 24.4-3.6 35-10.2 18.4-12 29.6-32.2 29.6-54.2V504h-68.2c-7.8 0-14-6.2-14-14s6.2-14 14-14h82.2c7.8 0 14 6.2 14 14v78.6c0 31.6-15.8 60.6-42.4 77.6-15 9.6-32.4 14.8-50.2 14.8z" fill="#463218" p-id="4332"></path><path d="M569.4 504h28v64.4h-28z" fill="#FFFFFF" p-id="4333"></path><path d="M470.6 376.6c-3.6 0-7.2-1.4-9.8-4.2-11.2-11.2-17.4-26.2-17.4-42 0-14.6 5.2-28.4 14.8-39.2 0.6-1.4 1.6-2.6 2.6-3.6 6-6 9.2-13.8 9.2-22.2s-3.2-16.2-9.2-22.2c-5.4-5.4-5.4-14.4 0-19.8s14.4-5.4 19.8 0c11.2 11.2 17.4 26.2 17.4 42 0 14.6-5.2 28.4-14.8 39.2-0.6 1.4-1.6 2.6-2.6 3.6-6 6-9.2 13.8-9.2 22.2s3.2 16.2 9.2 22.2c5.4 5.4 5.4 14.4 0 19.8-2.8 2.8-6.4 4.2-10 4.2z m0-78.2zM376.8 394c-3.6 0-7.2-1.4-9.8-4-16-16-16.8-41.4-2.2-58.2 0.6-1 1.4-2 2.2-3 5.8-5.8 5.8-15.2 0-21.2-5.4-5.4-5.4-14.4 0-19.8s14.4-5.4 19.8 0c16 16 16.8 41.4 2.2 58.2-0.6 1-1.4 2-2.2 3-5.8 5.8-5.8 15.2 0 21.2 5.4 5.4 5.4 14.4 0 19.8-2.8 2.6-6.4 4-10 4z m0-54.8zM564.4 394c-3.6 0-7.2-1.4-10-4-16-16-16.8-41.4-2.2-58.2 0.6-1 1.4-2 2.2-3 5.8-5.8 5.8-15.2 0-21.2-5.4-5.4-5.4-14.4 0-19.8s14.4-5.4 19.8 0c16 16 16.8 41.4 2.2 58.2-0.6 1-1.4 2-2.2 3-5.8 5.8-5.8 15.2 0 21.2 5.4 5.4 5.4 14.4 0 19.8-2.6 2.6-6.2 4-9.8 4z m0-54.8z" fill="#463218" p-id="4334"></path></svg>