<?xml version="1.0" standalone="no"?><!DOCTYPE svg PUBLIC "-//W3C//DTD SVG 1.1//EN" "http://www.w3.org/Graphics/SVG/1.1/DTD/svg11.dtd"><svg t="1778252372905" class="icon" viewBox="0 0 1024 1024" version="1.1" xmlns="http://www.w3.org/2000/svg" p-id="5402" xmlns:xlink="http://www.w3.org/1999/xlink" width="200" height="200"><path d="M344.442435 311.874783h335.11513c69.832348 0 128 55.830261 128 128v179.2c0 69.787826-55.852522 128-128 128H344.442435a127.621565 127.621565 0 0 1-128-128v-179.2c0-72.169739 58.167652-128 128-128z" fill="#F4C9C9" p-id="5403"></path><path d="M679.557565 763.325217H344.442435c-79.137391 0-146.632348-65.135304-146.632348-146.587826v-179.2c0-79.137391 65.179826-146.632348 146.632348-146.632348h335.11513c79.137391 0 146.632348 65.157565 146.632348 146.632348v179.2c0 81.452522-67.494957 146.610087-146.632348 146.610087zM344.442435 328.125217c-60.505043 0-111.705043 48.88487-111.705044 111.749566v179.2c0 60.482783 48.862609 111.682783 111.705044 111.682782h335.11513c60.505043 0 111.705043-48.862609 111.705044-111.705043v-179.2c0-60.505043-48.862609-111.705043-111.705044-111.705044H344.442435z m344.420174-48.862608a18.365217 18.365217 0 0 1-18.610087-18.610087c0-25.6-20.925217-46.525217-44.210087-46.525218h-230.4c-25.6 0-46.547478 20.925217-46.547478 46.525218a18.365217 18.365217 0 0 1-18.632348 18.610087c-11.620174 0-18.610087-6.967652-18.610087-18.610087 0-44.210087 34.905043-81.452522 81.474782-81.452522h230.4c44.210087 0 79.11513 34.905043 79.115131 81.474783 2.31513 9.282783-4.674783 18.587826-13.979826 18.587826zM332.8 844.8a18.365217 18.365217 0 0 1-18.610087-18.610087v-23.28487c0-9.305043 6.967652-18.610087 18.610087-18.610086 11.642435 0 18.610087 6.967652 18.610087 18.610086v23.28487c-2.31513 11.620174-9.305043 18.610087-18.610087 18.610087z m358.4 0a18.365217 18.365217 0 0 1-18.610087-18.610087v-23.28487c0-9.305043 6.967652-18.610087 18.610087-18.610086 11.642435 0 18.610087 6.967652 18.610087 18.610086v23.28487a18.365217 18.365217 0 0 1-18.610087 18.610087z" fill="#7F7F7F" p-id="5404"></path><path d="M367.705043 535.262609a139.642435 139.642435 0 1 0 279.28487 0 139.642435 139.642435 0 0 0-279.28487 0z" fill="#FFFFFF" p-id="5405"></path><path d="M581.810087 458.462609l-46.525217 83.789913h32.567652v23.284869h-39.557565v20.925218h39.557565v23.284869h-39.557565v34.905044h-39.557566v-34.905044h-41.894956v-23.284869h41.894956v-20.925218h-41.894956v-23.284869h34.905043l-46.547478-83.789913h39.557565l32.589913 76.8c0-2.31513 2.31513-6.967652 4.652522-11.620174l27.937391-62.842435h41.872696v-2.337391z" fill="#7F7F7F" p-id="5406"></path></svg>