<?xml version="1.0" standalone="no"?><!DOCTYPE svg PUBLIC "-//W3C//DTD SVG 1.1//EN" "http://www.w3.org/Graphics/SVG/1.1/DTD/svg11.dtd"><svg t="1778252356636" class="icon" viewBox="0 0 1024 1024" version="1.1" xmlns="http://www.w3.org/2000/svg" p-id="4632" xmlns:xlink="http://www.w3.org/1999/xlink" width="200" height="200"><path d="M764.752 548H664c-30.88 0-56-25.12-56-56s25.12-56 56-56h47.696a64.384 64.384 0 0 0 64.304-64.304 63.568 63.568 0 0 0-32.624-55.952 63.568 63.568 0 0 0-64.768 0.816l-50.496 30.304a8 8 0 1 1-8.24-13.712l50.496-30.304a79.44 79.44 0 0 1 80.88-1.024 79.408 79.408 0 0 1 40.736 69.872 80.384 80.384 0 0 1-80.304 80.304H664c-22.048 0-40 17.952-40 40s17.952 40 40 40h100.752a111.792 111.792 0 0 0 60.576-17.792l42.816-27.52a167.648 167.648 0 0 1 90.848-26.688H1000a8 8 0 0 0 8-8v-184a8 8 0 0 0-8-8h-8.432a128.4 128.4 0 0 1-62.992-16.56l-53.632-30.32a192.048 192.048 0 0 0-195.328 3.76l-208.144 128.464a8 8 0 1 1-8.4-13.616l208.144-128.464a208 208 0 0 1 211.6-4.064l53.632 30.32a112.368 112.368 0 0 0 55.104 14.496h8.448c13.232 0 24 10.768 24 24v184c0 13.232-10.768 24-24 24h-41.008A151.696 151.696 0 0 0 876.8 500.16l-42.832 27.536a127.888 127.888 0 0 1-69.216 20.304z" fill="#263238" p-id="4633"></path><path d="M664 572c-44.112 0-80-35.888-80-80s35.888-80 80-80h32v-24a16 16 0 0 0-16-16h-480a16 16 0 0 0-16 16v256a16 16 0 0 0 16 16h480a16 16 0 0 0 16-16v-72h-32z" fill="#4DB6AC" p-id="4634"></path><path d="M680 668h-480c-13.232 0-24-10.768-24-24v-256c0-13.232 10.768-24 24-24h480c13.232 0 24 10.768 24 24v24a8 8 0 0 1-16 0v-24a8 8 0 0 0-8-8h-480a8 8 0 0 0-8 8v256a8 8 0 0 0 8 8h480a8 8 0 0 0 8-8v-72a8 8 0 0 1 16 0v72c0 13.232-10.768 24-24 24zM472 72h-64a8 8 0 0 1 0-16h64a8 8 0 0 1 0 16z" fill="#263238" p-id="4635"></path><path d="M440 104A8 8 0 0 1 432 96V32a8 8 0 0 1 16 0v64a8 8 0 0 1-8 8zM344 160h-64a8 8 0 0 1 0-16h64a8 8 0 0 1 0 16z" fill="#263238" p-id="4636"></path><path d="M312 192a8 8 0 0 1-8-8v-64a8 8 0 0 1 16 0v64a8 8 0 0 1-8 8zM416 808a7.728 7.728 0 0 1-2.848-0.528l-126.72-48.272a231.216 231.216 0 0 0-82.592-15.2H160a8 8 0 0 1 0-16h43.824c30.288 0 60 5.472 88.304 16.256l126.72 48.272A8 8 0 0 1 416 808zM736 1000H503.84c-37.984 0-75.36-6.528-111.104-19.392l-121.184-43.632A151.808 151.808 0 0 0 220.08 928H160a8 8 0 0 1 0-16h60.08c19.456 0 38.592 3.344 56.912 9.936l121.184 43.632a311.104 311.104 0 0 0 105.68 18.432H736c17.648 0 32-14.352 32-32s-14.352-32-32-32H552a8 8 0 0 1 0-16H736c26.464 0 48 21.536 48 48s-21.536 48-48 48z" fill="#263238" p-id="4637"></path><path d="M8 712V944a16 16 0 0 0 16 16H112a16 16 0 0 0 16-16V712a16 16 0 0 0-16-16H24a16 16 0 0 0-16 16z" fill="#40C4FF" p-id="4638"></path><path d="M112 968H24C10.768 968 0 957.232 0 944V712c0-13.232 10.768-24 24-24H112c13.232 0 24 10.768 24 24V944c0 13.232-10.768 24-24 24zM24 704a8 8 0 0 0-8 8V944a8 8 0 0 0 8 8H112a8 8 0 0 0 8-8V712A8 8 0 0 0 112 704H24zM528 888h-104a8 8 0 0 1 0-16H528c17.648 0 32-14.352 32-32s-14.352-32-32-32h-112a8 8 0 0 1 0-16h112c26.464 0 48 21.536 48 48s-21.536 48-48 48zM200 332h-16a8 8 0 0 1 0-16h16a8 8 0 0 1 0 16zM408 332h-176a8 8 0 0 1 0-16h176a8 8 0 0 1 0 16zM696 720h-16a8 8 0 0 1 0-16h16a8 8 0 0 1 0 16zM648 720h-176a8 8 0 0 1 0-16h176a8 8 0 0 1 0 16z" fill="#263238" p-id="4639"></path><path d="M440 516m-96 0a96 96 0 1 0 192 0 96 96 0 1 0-192 0Z" fill="#FFFFFF" p-id="4640"></path><path d="M440 620c-57.344 0-104-46.656-104-104s46.656-104 104-104 104 46.656 104 104-46.656 104-104 104z m0-192c-48.528 0-88 39.472-88 88s39.472 88 88 88 88-39.472 88-88-39.472-88-88-88z" fill="#263238" p-id="4641"></path><path d="M452 564H408a8 8 0 0 1 0-16h44a12 12 0 0 0 0-24h-24c-15.44 0-28-12.56-28-28s12.56-28 28-28H464a8 8 0 0 1 0 16h-36a12 12 0 0 0 0 24h24c15.44 0 28 12.56 28 28s-12.56 28-28 28z" fill="#263238" p-id="4642"></path><path d="M440 484a8 8 0 0 1-8-8v-24a8 8 0 0 1 16 0v24a8 8 0 0 1-8 8z" fill="#263238" p-id="4643"></path><path d="M440 588a8 8 0 0 1-8-8v-24a8 8 0 0 1 16 0v24a8 8 0 0 1-8 8z" fill="#263238" p-id="4644"></path><path d="M594.976 620H285.04a8 8 0 0 1-7.216-4.56 103.872 103.872 0 0 0-56.688-52.448 8 8 0 0 1-5.136-7.472v-79.024a8 8 0 0 1 5.136-7.472 103.904 103.904 0 0 0 56.688-52.464 8 8 0 0 1 7.216-4.56h309.92c3.088 0 5.904 1.776 7.216 4.56 2.704 5.664 6.016 11.2 9.856 16.48a8 8 0 0 1-12.944 9.424 123.776 123.776 0 0 1-9.056-14.464H289.968a119.648 119.648 0 0 1-57.968 53.856v68.32a119.616 119.616 0 0 1 57.968 53.84h300.064a120.592 120.592 0 0 1 40.592-44.336 8 8 0 0 1 8.752 13.392 104.384 104.384 0 0 0-37.184 42.384 8.016 8.016 0 0 1-7.216 4.544z" fill="#263238" p-id="4645"></path></svg>