<?xml version="1.0" standalone="no"?><!DOCTYPE svg PUBLIC "-//W3C//DTD SVG 1.1//EN" "http://www.w3.org/Graphics/SVG/1.1/DTD/svg11.dtd"><svg t="1778252332958" class="icon" viewBox="0 0 1024 1024" version="1.1" xmlns="http://www.w3.org/2000/svg" p-id="3557" xmlns:xlink="http://www.w3.org/1999/xlink" width="200" height="200"><path d="M738.688255 207.995328H10.705455V138.668082L374.694307 0l363.993948 138.666384z m0 0M600.021871 207.995328h69.330644v311.990445h-69.330644z m0 0M426.691015 207.995328h69.337439v311.990445H426.689317z m0 0M253.366954 207.995328h69.330644v311.990445H253.366954z m0 0M80.036098 207.995328h69.328945v311.990445H80.036098z m0 0" fill="#4398D1" p-id="3558"></path><path d="M600.021871 207.995328h69.330644v34.666172h-69.330644z m0 0M426.691015 207.995328h69.337439v34.666172H426.689317z m0 0M253.366954 207.995328h69.330644v34.666172H253.366954z m0 0M80.036098 207.995328h69.328945v34.666172H80.036098z m0 0" fill="#3582BD" p-id="3559"></path><path d="M45.371626 519.987472h658.652156v69.328945H45.373324z m0 0" fill="#3E8CC7" p-id="3560"></path><path d="M10.705455 589.316417h727.9828v69.33574H10.705455z m0 0" fill="#4398D1" p-id="3561"></path><path d="M409.358779 103.995116c0 19.149887-15.52138 34.671267-34.664472 34.671268-19.144791 0-34.664472-15.52138-34.664473-34.671268 0-19.144791 15.519681-34.666171 34.664473-34.666171s34.664472 15.52138 34.664472 34.666171z m0 0" fill="#3582BD" p-id="3562"></path><path d="M565.357399 415.992356h346.656616v589.316416H565.357399z m0 0" fill="#88B337" p-id="3563"></path><path d="M565.357399 901.313656v103.995116h346.656616v-450.658526z m0 0" fill="#80A834" p-id="3564"></path><path d="M808.018898 935.978129h-138.668082c0-19.156682-15.506092-34.664472-34.662774-34.664473V519.987472c19.156682 0 34.664472-15.514585 34.664473-34.666171h138.666383c0 19.151586 15.514585 34.666171 34.664473 34.666171v381.326184c-19.149887 0-34.664472 15.50779-34.664473 34.664473z m0 0" fill="#6B962A" p-id="3565"></path><path d="M842.683371 710.650564c0-47.863676-46.562442-86.669675-103.995116-86.669675-57.43777 0-104.000212 38.805999-104.000213 86.669675 0 47.863676 46.562442 86.661181 104.000213 86.661181 57.432674 0 103.996815-38.799204 103.996815-86.661181z m0 0M721.356019 537.319708h34.664472v34.664472h-34.664472z m0 0M721.356019 849.310153h34.664472v34.664472h-34.664472z m0 0" fill="#88B337" p-id="3566"></path><path d="M253.366954 779.979509h34.664473v34.666171H253.366954z m0 0M253.366954 710.650564h34.664473v34.664472H253.366954z m0 0M253.366954 849.310153h34.664473v34.664472H253.366954z m0 0M253.366954 918.645893h34.664473v34.666171H253.366954z m0 0M322.697598 918.645893h34.664472v34.666171h-34.664472z m0 0M392.026543 918.645893h34.664472v34.666171h-34.664472z m0 0M461.362283 918.645893h34.666171v34.666171H461.360584z m0 0" fill="#FDB62F" p-id="3567"></path><path d="M975.404167 704.704977l-63.390152-63.385057v138.659589l-86.66288-86.661181c-19.151586-19.158381-50.180756-19.158381-69.330644 0-19.156682 19.149887-19.156682 50.179058 0 69.328945l121.327352 121.327352a177.535236 177.535236 0 0 0-51.998407 125.547021V1022.641009H1016.015926V802.754506a138.662986 138.662986 0 0 0-40.611759-98.051228z m0 0" fill="#FFB782" p-id="3568"></path><path d="M946.678487 831.977916c-4.591692 0-9.011812-1.817651-12.249608-5.077531l-51.998408-51.996709c-6.653962-6.879894-6.468799-17.857147 0.412794-24.512807 6.727007-6.482389 17.371307-6.482389 24.093218 0l51.998408 51.998408c6.760982 6.781367 6.760982 17.750126 0 24.512807a17.310153 17.310153 0 0 1-12.256404 5.075832z m0 0" fill="#F2A46F" p-id="3569"></path></svg>