<?xml version="1.0" standalone="no"?><!DOCTYPE svg PUBLIC "-//W3C//DTD SVG 1.1//EN" "http://www.w3.org/Graphics/SVG/1.1/DTD/svg11.dtd"><svg t="1778252363611" class="icon" viewBox="0 0 1024 1024" version="1.1" xmlns="http://www.w3.org/2000/svg" p-id="4947" xmlns:xlink="http://www.w3.org/1999/xlink" width="200" height="200"><path d="M512 512m-481.882353 0a481.882353 481.882353 0 1 0 963.764706 0 481.882353 481.882353 0 1 0-963.764706 0Z" fill="#F6EFEF" p-id="4948"></path><path d="M602.352941 481.882353V271.058824h30.117647v210.823529h30.117647V271.058824h30.117647v210.823529c0 18.371765-11.745882 30.117647-30.117647 30.117647h-30.117647v240.941176h-30.117647v-240.941176h-30.117647c-16.414118 0-27.286588-10.842353-30.117647-30.117647V271.058824h30.117647l-0.180706 208.50447c0.481882 3.132235-0.301176 2.319059 0.180706 2.319059h30.117647z m-210.823529 27.708235c-34.364235-11.143529-60.235294-59.783529-60.235294-118.061176 0-66.56 33.731765-120.470588 75.294117-120.470588S481.882353 324.969412 481.882353 391.529412c0 58.277647-25.871059 106.917647-60.235294 118.061176V752.941176h-30.117647v-243.350588z m15.058823-27.708235c24.395294 0 45.176471-39.634824 45.176471-90.352941s-20.781176-90.352941-45.176471-90.352941-45.176471 39.634824-45.17647 90.352941 20.781176 90.352941 45.17647 90.352941z" fill="#E21A43" p-id="4949"></path></svg>