<?xml version="1.0" standalone="no"?><!DOCTYPE svg PUBLIC "-//W3C//DTD SVG 1.1//EN" "http://www.w3.org/Graphics/SVG/1.1/DTD/svg11.dtd"><svg t="1778519112265" class="icon" viewBox="0 0 1024 1024" version="1.1" xmlns="http://www.w3.org/2000/svg" p-id="6044" xmlns:xlink="http://www.w3.org/1999/xlink" width="200" height="200"><path d="M524.781714 169.142857a41.526857 41.526857 0 1 0 83.053715 0 41.526857 41.526857 0 0 0-83.053715 0z m89.965715 90.185143a41.526857 41.526857 0 1 0 83.053714 0 41.526857 41.526857 0 0 0-83.053714 0z m357.997714 104.594286c-21.906286-31.213714-47.872-41.782857-82.450286-44.653715-2.688-26.276571-15.926857-73.142857-73.033143-107.739428-54.308571-32.877714-89.728-70.985143-152.265143-144.219429C629.248 25.472 581.76 1.755429 531.254857 0.548571c-52.297143-1.645714-104.082286 22.162286-145.097143 65.828572l-1.261714 1.353143c-73.325714 78.116571-98.029714 104.448-156.708571 141.312-58.093714 36.498286-68.662857 84.48-69.485715 111.542857-42.971429 1.755429-74.422857 10.715429-101.12 41.051428C31.561143 391.149714 11.062857 446.409143 22.125714 494.994286c7.314286 32.091429 26.971429 55.771429 56.850286 68.425143a132.022857 132.022857 0 0 0 25.782857 7.881142c3.035429 28.745143 4.681143 55.661714 4.681143 97.572572 0 99.968-10.788571 150.966857-18.688 188.178286-6.838857 32.310857-11.776 55.661714-3.84 87.515428 17.188571 68.937143 81.097143 65.316571 208.512 58.002286 58.770286-3.364571 131.876571-7.552 226.066286-7.552 119.625143 0 199.862857 7.296 252.982857 12.123428 26.953143 2.432 49.371429 4.48 68.370286 4.48 42.24 0 67.876571-10.057143 89.746285-47.817142 21.138286-36.498286 14.72-73.581714 5.851429-124.891429-7.113143-41.124571-16.841143-97.444571-16.841143-177.481143 0-36.260571 2.121143-61.513143 4.845714-87.552 19.2-5.577143 34.834286-16.365714 47.817143-33.042286 37.357714-48 36.699429-122.404571-1.536-176.914285z m-716.909714-110.811429c64.365714-40.448 92.306286-70.198857 167.003428-149.76l1.243429-1.353143c30.774857-32.749714 69.229714-50.322286 105.947428-49.426285 35.510857 0.841143 69.394286 18.066286 95.414857 48.530285 66.230857 77.568 104.100571 118.125714 164.864 154.934857 34.56 20.918857 44.672 47.104 47.542858 62.902858-15.817143 0.64-33.590857 1.645714-54.272 2.834285-61.659429 3.620571-146.066286 8.557714-269.293715 8.557715-108.891429 0-189.257143-3.986286-247.936-6.875429-21.065143-1.042286-39.314286-1.901714-55.808-2.486857 0.621714-14.866286 7.186286-43.904 45.293715-67.84z m631.771428 684.617143c-14.262857 24.594286-20.297143 25.563429-108.416 17.609143-54.034286-4.918857-135.698286-12.324571-257.682286-12.324572-95.670857 0-169.618286 4.224-229.046857 7.606858-120.100571 6.893714-148.900571 5.997714-155.062857-18.651429-5.028571-20.205714-1.92-34.889143 4.260572-64.128 7.899429-37.248 19.803429-93.549714 19.803428-198.948571 0-40.850286-1.499429-68.205714-4.260571-96.091429 19.931429-2.066286 41.636571-6.326857 67.309714-11.465143 63.542857-12.745143 150.528-30.171429 292.608-30.171428 123.611429 0 212.425143 18.688 277.266286 32.310857 30.939429 6.509714 56.685714 11.830857 79.433143 13.897143a808.557714 808.557714 0 0 0-4.205715 84.059428c0 84.498286 10.166857 143.36 17.572572 186.331429 8.393143 48.402286 11.611429 70.619429 0.420571 89.965714z m45.622857-428.836571c-9.929143 12.745143-20.992 17.499429-40.850285 17.499428-21.668571 0-50.651429-6.107429-87.296-13.805714-67.072-14.116571-158.902857-33.426286-287.963429-33.426286-147.218286 0-237.165714 18.011429-302.829714 31.158857-32.896 6.582857-58.88 11.794286-79.872 11.794286H134.4c-13.312 0-24.466286-2.102857-35.108571-6.582857-14.262857-6.034286-22.893714-16.548571-26.422858-32.091429-6.765714-29.659429 7.058286-68.461714 23.734858-87.405714 14.482286-16.420571 29.622857-23.771429 81.060571-23.771429 22.637714 0 50.651429 1.408 86.125714 3.163429 59.209143 2.925714 140.324571 6.930286 250.514286 6.930286 124.726857 0 210.029714-4.992 272.310857-8.630857 33.005714-1.938286 59.099429-3.474286 79.177143-3.474286 43.318857 0 52.845714 7.168 64.365714 23.552 25.014857 35.693714 26.349714 85.174857 3.072 115.090286z" fill="#000000" opacity=".6" p-id="6045"></path></svg>