<?xml version="1.0" standalone="no"?><!DOCTYPE svg PUBLIC "-//W3C//DTD SVG 1.1//EN" "http://www.w3.org/Graphics/SVG/1.1/DTD/svg11.dtd"><svg t="1778252346114" class="icon" viewBox="0 0 1024 1024" version="1.1" xmlns="http://www.w3.org/2000/svg" p-id="4172" xmlns:xlink="http://www.w3.org/1999/xlink" width="200" height="200"><path d="M973 811.2h-216c-21.6 0-39 17.4-39 39s17.4 39 39 39h216c21.6 0 39-17.4 39-39s-17.4-39-39-39z" fill="#CD3333" p-id="4173"></path><path d="M430.4 766.4l-93.2 93.2c-4.4 4.4-10.2 6.8-16.2 6.8-6.2 0-12-2.4-16.2-6.8l-93.2-93.2C176.8 771 144 787.2 119.2 812c-24.4 24.6-40.4 56.6-45.2 90.6h158.6c12.6 0 23 10.4 23 23s-10.4 23-23 23H72v51.6h497.6v-75.2c0-80.4-59.8-148.2-139.2-158.6z" fill="#CD3333" p-id="4174"></path><path d="M353 354c8 5 18.4 2.4 23.4-5.6 25.6-41.4 64.8-72.8 110.8-88.6l0.4-0.2h289l0.4 0.2c85 29.2 142 109 142 198.8v53c0 9.4 7.6 17 17 17s17-7.6 17-17v-53c0-50.6-15.2-99.2-44.2-140.4-28.8-41.2-69.2-72-116.6-89.2l-3-1 73.2-172.2c3.4-7.8 0.4-17-7-21.2L820.2 13.6c-26.6-15.8-60.6-13.2-84.6 6.2l-5.4 4.4c-14.6 12-36 12-50.6 0l-0.2-0.2c-27.4-22-66.8-22-94 0.2-14.6 12-36 12-50.6 0l-5.6-4.6C505.4 0 471.4-2.6 444.8 13.2l-36.2 21.4c-7.4 4.4-10.4 13.6-7 21.4l73.8 172-3 1c-51.8 18.6-96.2 54.8-125 101.4-2.4 3.8-3.2 8.4-2 12.8 1 4.6 3.6 8.4 7.6 10.8z m85.8-297.6l23.4-13.8c14.4-8.4 32.6-7 45.6 3.4l5.6 4.6c27.2 22.2 66.6 22.2 93.8 0 14.6-12 36-12 50.6 0l0.2 0.2c27.2 22.2 66.4 22.2 93.6 0l5.4-4.4c13-10.6 31.4-12 45.8-3.4l22.6 13.4-72 169.4h-242l-72.6-169.4z" fill="#222222" p-id="4175"></path><path d="M753.2 225.8l72-169.4-22.6-13.4c-14.4-8.6-32.8-7.2-45.8 3.4l-5.4 4.4c-27.2 22.2-66.6 22.2-93.6 0l-0.2-0.2c-14.8-12-36-12-50.6 0-27.2 22.2-66.6 22.2-93.8 0l-5.6-4.6c-13-10.6-31.2-12-45.6-3.4l-23.4 13.8 72.6 169.4h242zM504 50.8l5.6 4.6c29.4 24 72 24 101.4 0 12.4-10.2 30.6-10.2 43 0l0.2 0.2c29.4 24 71.8 24 101.2 0l5.4-4.4c11-9 26.6-10.2 38.8-2.8l18 10.8-68.4 161h-234l-69-160.8 18.8-11c12.4-7.8 28-6.6 39 2.4z" fill="#FFFFFF" p-id="4176"></path><path d="M948 575.4c-3.2-3.2-7.6-5-12-5s-8.8 1.8-12 5c-3.2 3.2-5 7.6-5 12s1.8 8.8 5 12c3.2 3.2 7.6 5 12 5s8.8-1.8 12-5c3.2-3.2 5-7.6 5-12s-1.8-8.8-5-12z" fill="#222222" p-id="4177"></path><path d="M919.8 571.2c-4.2 4.4-6.8 10.2-6.8 16.2s2.4 12 6.8 16.2c4.2 4.2 10.2 6.8 16.2 6.8s12-2.4 16.2-6.8c4.2-4.2 6.8-10.2 6.8-16.2s-2.4-12-6.8-16.2c-4.2-4.2-10.2-6.8-16.2-6.8s-12 2.4-16.2 6.8z m16.2 33.2c-4.4 0-8.8-1.8-12-5-3.2-3.2-5-7.6-5-12s1.8-8.8 5-12c3.2-3.2 7.6-5 12-5s8.8 1.8 12 5c3.2 3.2 5 7.6 5 12s-1.8 8.8-5 12c-3.2 3.2-7.6 5-12 5z" fill="#FFFFFF" p-id="4178"></path><path d="M303.8 894.2c-3.2-3.2-7.6-5-12-5s-8.8 1.8-12 5c-3.2 3.2-5 7.6-5 12s1.8 8.8 5 12c3.2 3.2 7.6 5 12 5s8.8-1.8 12-5c3.2-3.2 5-7.6 5-12s-1.8-8.8-5-12z" fill="#222222" p-id="4179"></path><path d="M997.2 894l-2.4-2.2 2.4-2.2c15-13.8 23.8-33.4 23.8-53.8s-8.6-40-23.8-53.8l-2.4-2.2 2.4-2.2c15-13.8 23.8-33.4 23.8-53.8 0-40.2-32.8-73-73-73H732c-40.2 0-73 32.8-73 73 0 20.4 8.6 40 23.8 53.8l2.4 2.2-2.4 2.2c-15 13.8-23.8 33.4-23.8 53.8s8.6 40 23.8 53.8l2.4 2.2-2.4 2.2c-15 13.8-23.8 33.4-23.8 53.8 0 12 3 24 8.8 34.6l2.4 4.4h-89.4v-81.2c0-50.2-18.8-98.2-52.8-135.2-33.8-36.8-79.8-59.6-129.2-64l-0.6-0.2c-2.4-0.6-4.8-0.8-7.4-0.6h-0.2l-8.2-0.4 5-4.8c26.6-26 41.2-60.6 41.2-97.6v-199.2c0-9.4-7.6-17-17-17h-148.2c-59.6 0-108 48.4-108 108v108.2c0 37 14.6 71.6 41.2 97.6l5 4.8-8.2 0.4h-0.2c-0.8-0.2-1.6-0.2-2.6-0.2-1.6 0-3.2 0.2-4.8 0.6l-0.6 0.2c-49.4 4.4-95.4 27.2-129.2 64-34 37-52.8 85-52.8 135.2v98.2c0 9.4 7.6 17 17 17h928c40.2 0 73-32.8 73-73-0.2-20.2-8.8-39.8-24-53.6z m-808-399c0-40.8 33.2-74 74-74h131.2v56.6c0 28.6-23.4 52-52 52H189.2v-34.6z m0 108v-39.6h153.2c17 0 33.2-5 47.4-14.2l4.6-3v57c0 56.6-46 102.6-102.6 102.6-56.6-0.2-102.6-46.2-102.6-102.8z m163 136.6L291.8 800l-60.4-60.4h120.8z m194.4 247.2H37v-63.6h166.2c9.4 0 17-7.6 17-17s-7.6-17-17-17H37.8l0.4-3.4c4.4-36.6 21.2-71.2 47.4-97.4 26.2-26.2 60.8-43.2 97.4-47.6l1.4-0.2 95.4 95.4c3.2 3.2 7.4 5 12 5s8.8-1.8 12-5l95.4-95.4 1.4 0.2c83.2 10 146 80.8 146 164.8v81.2z m401.4 0H732c-21.6 0-39-17.4-39-39s17.4-39 39-39h216c21.6 0 39 17.4 39 39s-17.4 39-39 39z m0-112H732c-21.6 0-39-17.4-39-39s17.4-39 39-39h216c21.6 0 39 17.4 39 39s-17.4 39-39 39z m0-112H732c-21.6 0-39-17.4-39-39s17.4-39 39-39h216c21.6 0 39 17.4 39 39s-17.4 39-39 39z" fill="#222222" p-id="4180"></path><path d="M948 908.8H732c-21.6 0-39 17.4-39 39s17.4 39 39 39h216c21.6 0 39-17.4 39-39s-17.4-39-39-39z m0 72H732c-18.2 0-33-14.8-33-33s14.8-33 33-33h216c18.2 0 33 14.8 33 33s-14.8 33-33 33zM948 684.8H732c-21.6 0-39 17.4-39 39s17.4 39 39 39h216c21.6 0 39-17.4 39-39s-17.4-39-39-39z" fill="#FFFFFF" p-id="4181"></path><path d="M780 431.4c0 9.4 7.6 17 17 17s17-7.6 17-17c0-26.8-19.2-51-46.8-58.8l-2.2-0.6v-5.2c0-9.4-7.6-17-17-17s-17 7.6-17 17v5.2l-2.2 0.6c-27.6 7.8-46.8 32-46.8 58.8 0 34 29.6 61.6 66 61.6 17.6 0 32 12.4 32 27.6 0 15.2-14.4 27.6-32 27.6s-32-12.4-32-27.6c0-9.4-7.6-17-17-17s-17 7.6-17 17c0 26.8 19.2 51 46.8 58.8l2.2 0.6v3.6c0 9.4 7.6 17 17 17s17-7.6 17-17V580l2.2-0.6c27.6-7.8 46.8-32 46.8-58.8 0-34-29.6-61.6-66-61.6-17.6 0-32-12.4-32-27.6s14.4-27.6 32-27.6 32 12.6 32 27.6z" fill="#222222" p-id="4182"></path></svg>