<?xml version="1.0" standalone="no"?><!DOCTYPE svg PUBLIC "-//W3C//DTD SVG 1.1//EN" "http://www.w3.org/Graphics/SVG/1.1/DTD/svg11.dtd"><svg t="1778252360277" class="icon" viewBox="0 0 1024 1024" version="1.1" xmlns="http://www.w3.org/2000/svg" p-id="4789" xmlns:xlink="http://www.w3.org/1999/xlink" width="200" height="200"><path d="M554.812 317.214H341.188v-50.686c0-11.782 9.562-21.344 21.344-21.344h170.934c11.782 0 21.344 9.562 21.344 21.344v50.686z" fill="#434A54" p-id="4790"></path><path d="M148.882 458.368s78.998-149.34 299.12-149.34c220.152 0 298.714 149.402 298.714 149.402 255.962 0 255.962 0 255.962 234.574H106.696c-39.406 0.312-85.342-42.188-85.342-42.188v-149.792l42.686-42.656h84.842z" fill="#FFCE54" p-id="4791"></path><path d="M732.464 437.026c-31.25-41.312-116.78-127.998-284.464-127.998-167.748 0-253.558 86.716-284.87 127.998h569.334z" fill="#4FC2E9" p-id="4792"></path><path d="M384.034 318.058h42.656v118.966h-42.656z" fill="#3BAFDA" p-id="4793"></path><path d="M106.29 714.378c-46.342 0-94.124-43-99.404-47.876a21.434 21.434 0 0 1-6.876-15.688v-149.792a21.36 21.36 0 0 1 6.25-15.094l42.686-42.656c4-4 9.438-6.25 15.094-6.25h72.936c9.938-15 30.968-42.624 65.718-70.092 45.78-36.156 125.498-79.248 245.308-79.248 119.874 0 199.464 43.124 245.152 79.31 34.656 27.468 55.594 55.092 65.532 70.124 125.402 0.032 189.464 1.032 226.402 34.906 38.904 35.688 38.904 97.608 38.904 220.98 0 11.812-9.532 21.376-21.312 21.376H106.29z m-63.594-73.374c14.594 11.688 42.592 30.688 63.592 30.688H981.334c-0.124-93.996-1.718-146.792-25.062-168.198-25.876-23.718-91.124-23.718-209.558-23.718a21.372 21.372 0 0 1-18.876-11.406c-0.156-0.282-19.062-35.062-62.812-69.216-58.498-45.656-131.496-68.78-217.026-68.78-204.902 0-279.526 136.59-280.276 137.966a21.326 21.326 0 0 1-18.844 11.344H72.852l-30.156 30.188v131.132z" fill="#FFCE54" p-id="4794"></path><path d="M234.692 565.508c-58.81 0-106.654 47.812-106.654 106.622 0 58.876 47.844 106.688 106.654 106.688 58.812 0 106.654-47.812 106.654-106.688 0-58.81-47.842-106.622-106.654-106.622zM789.338 565.508c-58.81 0-106.654 47.812-106.654 106.622 0 58.876 47.844 106.688 106.654 106.688s106.654-47.812 106.654-106.688c0-58.81-47.844-106.622-106.654-106.622z" fill="#434A54" p-id="4795"></path><path d="M213.35 672.128c0 11.812 9.562 21.376 21.342 21.376 11.782 0 21.344-9.562 21.344-21.376 0-11.75-9.562-21.312-21.344-21.312-11.78 0-21.342 9.562-21.342 21.312z" fill="#F5F7FA" p-id="4796"></path><path d="M341.472 522.524a21.33 21.33 0 0 0-21.342 21.344c0 11.766 9.562 21.328 21.342 21.328s21.344-9.562 21.344-21.328c0-11.814-9.564-21.344-21.344-21.344zM384.126 565.196c-11.78 0-21.312 9.562-21.312 21.312 0 11.812 9.532 21.376 21.312 21.376 11.782 0 21.344-9.562 21.344-21.376 0-11.75-9.562-21.312-21.344-21.312zM426.814 522.524c-11.782 0-21.344 9.532-21.344 21.344 0 11.766 9.562 21.328 21.344 21.328 11.78 0 21.312-9.562 21.312-21.328 0-11.814-9.532-21.344-21.312-21.344zM469.47 565.196c-11.782 0-21.344 9.562-21.344 21.312 0 11.812 9.562 21.376 21.344 21.376 11.78 0 21.342-9.562 21.342-21.376 0-11.75-9.562-21.312-21.342-21.312zM512.124 522.524c-11.782 0-21.312 9.532-21.312 21.344 0 11.766 9.532 21.328 21.312 21.328s21.344-9.562 21.344-21.328c0-11.814-9.562-21.344-21.344-21.344zM554.812 565.196c-11.782 0-21.344 9.562-21.344 21.312 0 11.812 9.562 21.376 21.344 21.376s21.312-9.562 21.312-21.376c0-11.75-9.53-21.312-21.312-21.312zM597.466 522.524a21.33 21.33 0 0 0-21.342 21.344c0 11.766 9.56 21.328 21.342 21.328s21.344-9.562 21.344-21.328c0-11.814-9.562-21.344-21.344-21.344zM640.122 565.196c-11.78 0-21.31 9.562-21.31 21.312 0 11.812 9.532 21.376 21.31 21.376 11.782 0 21.344-9.562 21.344-21.376-0.002-11.75-9.564-21.312-21.344-21.312zM682.808 522.524c-11.782 0-21.344 9.532-21.344 21.344 0 11.766 9.562 21.328 21.344 21.328s21.312-9.562 21.312-21.328c0.002-11.814-9.53-21.344-21.312-21.344z" fill="#434A54" p-id="4797"></path><path d="M767.996 672.128c0 11.812 9.562 21.376 21.342 21.376 11.782 0 21.344-9.562 21.344-21.376 0-11.75-9.562-21.312-21.344-21.312-11.78 0-21.342 9.562-21.342 21.312zM1018.146 542.992c-2.624-16.282-6.468-30.124-12.032-41.968h-67.716c-11.782 0-21.344 9.532-21.344 21.342 0 11.782 9.562 21.312 21.344 21.312h74.466a20.8 20.8 0 0 0 5.282-0.686z" fill="#F5F7FA" p-id="4798"></path><path d="M64.04 437.026a21.36 21.36 0 0 0-15.094 6.25L6.26 485.93c-4 4-6.25 9.438-6.25 15.094H64.04c11.782 0 21.312-9.562 21.312-21.344v-42.656H64.04z" fill="#FC6E51" p-id="4799"></path></svg>