<?xml version="1.0" standalone="no"?><!DOCTYPE svg PUBLIC "-//W3C//DTD SVG 1.1//EN" "http://www.w3.org/Graphics/SVG/1.1/DTD/svg11.dtd"><svg t="1778252342943" class="icon" viewBox="0 0 1024 1024" version="1.1" xmlns="http://www.w3.org/2000/svg" p-id="4017" xmlns:xlink="http://www.w3.org/1999/xlink" width="200" height="200"><path d="M189.6 613.6H64.4V262.4c0-106.8 86.8-194 193.6-194h587.6V0l116 131.2-116 131.2V193.2H271.6c-45.2 0-82 36.8-82 82v338.4z m-112-13.6H176V275.2C176.4 222.8 218.8 180 271.6 180h587.6v47.6l84.8-96-84.8-96v46H258c-99.6 0-180.4 81.2-180.4 180.8V600z" fill="#4A555F" p-id="4018"></path><path d="M874.8 186.4v-22H271.6c-61.2 0-110.8 49.6-110.8 110.8v309.2H93.2V262.4c0-90.8 74-165.2 164.8-165.2h616.4v-20.4l48.4 54.8-48 54.8z" fill="#F68F6F" p-id="4019"></path><path d="M178 1024l-116-131.2 116-131.2v69.2h574.4c45.2 0 82-36.8 82-82v-338.4h125.2v351.2c0 106.8-86.8 194-193.6 194H178.4V1024zM80 892.8l84.8 96v-46h601.2c99.6 0 180.4-81.2 180.4-180.8V424H848v324.8c0 52.4-42.8 95.2-95.2 95.2h-588v-47.6L80 892.8z" fill="#4A555F" p-id="4020"></path><path d="M149.2 837.6v22h603.2c61.2 0 110.8-49.6 110.8-110.8v-309.2h67.2v322.4c0 90.8-74 165.2-164.8 165.2H149.2v20.4l-48.4-54.8 48.4-55.2z" fill="#F68F6F" p-id="4021"></path><path d="M500.8 694v-42.8l-12.8-5.2c-24.4-9.6-41.6-30-48-54.4h36.8c7.6 15.2 23.2 25.6 41.2 25.6 25.2 0 46-20.8 46-46 0-22.4-18.4-40.8-40.8-40.8h-5.2c-44 0-80-36-80-80 0-32.8 20-62.4 50.4-74.8l12.8-5.2V328h34.4v42.8L548 376c24.8 10 42.4 30.8 48.4 55.6H560c-7.2-16-23.2-26.8-42-26.8-25.2 0-46 20.8-46 46s20.4 45.6 45.6 45.6h5.2c41.6 0 75.2 34 75.2 75.2 0 32.8-20 62.4-50.4 74.8l-12.8 5.2v42.8h-34z" fill="#FFD552" p-id="4022"></path><path d="M542 700.8h-48v-45.2l-8.4-3.6c-25.6-10.4-45.2-32.4-52-58.8l-2-8.4h49.6l2 3.6c6.8 13.6 20 22 35.2 22 21.6 0 39.2-17.6 39.2-39.2 0-18.8-15.2-34-34.4-34h-5.2c-48 0-86.8-38.8-86.8-86.8 0-35.6 21.6-67.6 54.8-80.8l8.4-3.6V321.2h48v45.2l8.4 3.6c26 10.4 45.6 33.2 52.4 60.4l2 8.4H556l-1.6-4c-6.4-14-20.4-23.2-35.6-23.2-21.6 0-39.2 17.6-39.2 39.2s17.6 38.8 38.8 38.8h5.2c45.2 0 82 36.8 82 82 0 35.6-21.6 67.6-54.8 80.8l-8.4 3.6v44.8z m-34.8-13.2h21.2v-40.8l16.8-6.8c28-11.2 46.4-38 46.4-68.4 0-38-30.8-68.8-68.8-68.8h-5.2c-28.8 0-52.4-23.6-52.4-52.4 0-29.2 23.6-52.8 52.4-52.8 19.2 0 36.8 10.4 46 26.8h23.2c-7.2-19.2-22.4-34.8-41.6-42.8l-16.8-6.8V334.4h-21.2v40.8l-16.8 6.8c-28 11.2-46.4 38-46.4 68.4 0 40.4 32.8 73.6 73.6 73.6h5.2c26.4 0 47.6 21.2 47.6 47.6 0 29.2-23.6 52.4-52.4 52.4-18.8 0-35.6-9.6-45.2-25.6h-23.6c7.2 18.8 22 33.6 41.2 41.6l16.8 6.8v40.8z" fill="#4A555F" p-id="4023"></path><path d="M518 281.2C390.8 281.2 288 384 288 511.2s102.8 230 230 230 230-102.8 230-230-103.2-230-230-230z m-0.4 192.8h5.2c54 0 97.6 43.6 97.6 97.6 0 41.6-24.8 78.8-63.2 94.8v50h-78.8v-50c-29.6-12.4-52-38-60-68.8l-7.2-28h79.2l6 12.4c4 8 12 13.2 21.2 13.2 13.2 0 23.6-10.8 23.6-23.6 0-10.4-8.4-18.8-18.8-18.8h-5.2c-56.4 0-102.4-46-102.4-102.4 0-41.6 24.8-78.8 63.2-94.8V305.6h78.8V356c30.4 12.8 52.8 38.8 60.4 70.4l6.8 27.6h-78.8l-6-13.2c-4-8.4-12.4-14-21.6-14-13.2 0-23.6 10.8-23.6 23.6 0.4 13.2 10.8 23.6 23.6 23.6z" fill="#71CDE1" p-id="4024"></path></svg>