<?xml version="1.0" standalone="no"?><!DOCTYPE svg PUBLIC "-//W3C//DTD SVG 1.1//EN" "http://www.w3.org/Graphics/SVG/1.1/DTD/svg11.dtd"><svg t="1778590567142" class="icon" viewBox="0 0 1024 1024" version="1.1" xmlns="http://www.w3.org/2000/svg" p-id="7377" xmlns:xlink="http://www.w3.org/1999/xlink" width="200" height="200"><path d="M76.111367 346.676652h687.156539v342.442402H76.111367z" fill="#F0F0FF" p-id="7378"></path><path d="M76.111367 365.229841h687.156539l-18.553189-18.553189v342.442402l18.553189-18.55319H76.111367l18.55319 18.55319V346.676652l-18.55319 18.553189z m0 342.442402h705.709728V328.123462H57.558178v379.548781h18.553189z" fill="#6E6E96" p-id="7379"></path><path d="M35.640677 728.455938l40.47069-43.851494h687.152416l49.025772 43.851494v61.629573H35.640677z" fill="#F0F0FF" p-id="7380"></path><path d="M423.113731 177.739555m-54.78963 0a54.78963 54.78963 0 1 0 109.57926 0 54.78963 54.78963 0 1 0-109.57926 0Z" fill="#C9B8A8" p-id="7381"></path><path d="M821.990812 268.773871l-338.014374-225.392391c-35.782918-25.166371-94.077039-24.815922-129.542491 0.78748L26.091969 268.773871v77.898658h797.028526V268.773871h-1.129683z" fill="#F0F0FF" p-id="7382"></path><path d="M832.285771 253.337617L494.271397 27.945226c-42.169338-29.664488-108.527912-29.260441-150.693128 1.183281l0.383433-0.272113L15.615601 253.461305A18.553189 18.553189 0 0 0 7.538779 268.773871v77.898658a18.553189 18.553189 0 0 0 18.55319 18.553189h797.028526c10.241361 0 18.553189-8.307706 18.55319-18.553189V268.773871c0-10.245483-8.311829-18.553189-18.55319-18.55319h-1.12556c3.661163 0 7.235744 1.084331 10.290836 3.116936z m-27.718465 15.436254v77.898658c0-10.245483 8.311829-18.553189 18.553189-18.553189H26.091969a18.553189 18.553189 0 0 1 18.553189 18.553189V268.773871a18.553189 18.553189 0 0 1-8.076822 15.312566l328.341978-224.604912c0.131934-0.086582 0.259745-0.177286 0.383433-0.272113 29.140876-21.035194 78.603679-21.336168 108.008423-0.655546 0.37931 0.259745 338.397806 225.652136 338.397806 225.652136a18.507837 18.507837 0 0 0 10.290836 3.116935h1.117314a18.549067 18.549067 0 0 1-18.54082-18.549066z" fill="#6E6E96" p-id="7383"></path><path d="M268.058542 666.051255H188.349918l18.553189 18.553189V346.672529l-18.553189 18.553189h79.708624l-18.553189-18.553189v337.931915l18.553189-18.553189z m0-337.931915H169.796728v375.038294h116.815004V328.11934h-18.55319zM654.241119 666.051255h-79.712748l18.55319 18.553189V346.672529l-18.55319 18.553189h79.712748l-18.553189-18.553189v337.931915l18.553189-18.553189z m0-337.931915h-98.265937v375.038294h116.819126V328.11934h-18.553189zM463.213358 666.051255H383.50061l18.553189 18.553189V346.672529l-18.553189 18.553189h79.712748l-18.55319-18.553189v337.931915l18.55319-18.553189z m0-337.931915H364.947421v375.038294h116.819126V328.11934h-18.553189z" fill="#6E6E96" p-id="7384"></path><path d="M74.280786 346.672529h688.982997v82.182383H74.280786z" fill="#F0F0FF" p-id="7385"></path><path d="M819.48407 256.405078L481.469696 31.012687c-35.787041-25.166371-94.077039-24.815922-129.542492 0.78748L23.585227 256.405078v77.898658h6.662656L351.927204 114.258786c35.465452-25.603401 93.755451-25.953851 129.542492-0.787479l331.178554 220.832429h7.969626V256.405078h-1.133806z" fill="#6E6E96" opacity=".15" p-id="7386"></path><path d="M26.091969 268.773871h797.028526v77.898658H26.091969z" fill="#F0F0FF" p-id="7387"></path><path d="M823.120495 328.11934H26.091969a18.553189 18.553189 0 0 1 18.553189 18.553189V268.773871a18.553189 18.553189 0 0 1-18.553189 18.553189h797.028526a18.557312 18.557312 0 0 1-18.553189-18.553189v77.898658c0-10.245483 8.311829-18.553189 18.553189-18.553189z m0-77.898659H26.091969a18.553189 18.553189 0 0 0-18.55319 18.55319v77.898658a18.553189 18.553189 0 0 0 18.55319 18.553189h797.028526c10.241361 0 18.553189-8.307706 18.55319-18.553189V268.773871c0-10.245483-8.311829-18.553189-18.55319-18.55319z" fill="#6E6E96" p-id="7388"></path><path d="M88.022515 364.260953h656.688079v24.737585H88.022515zM54.193866 736.7018h739.5425v34.830521H54.193866z" fill="#6E6E96" opacity=".15" p-id="7389"></path><path d="M206.903107 479.018614h21.303184v187.696433h-21.303184zM402.053799 479.018614h21.303185v187.696433h-21.303185zM593.081561 479.018614h19.930248v191.71629h-19.930248z" fill="#FFFFFF" p-id="7390"></path><path d="M49.27521 741.030878l40.47069-43.847371a18.565558 18.565558 0 0 1-13.634533 5.961758h687.156539a18.553189 18.553189 0 0 1-12.368793-4.724879l49.034018 43.855617a18.565558 18.565558 0 0 1-6.184396-13.828311v61.621327c0-10.237238 8.311829-18.553189 18.553189-18.55319H35.640677c10.245483 0 18.553189 8.315952 18.553189 18.55319v-61.621327a18.540821 18.540821 0 0 1-4.918656 12.583186z m-13.634533 67.607822h776.648878c10.241361 0 18.553189-8.307706 18.55319-18.553189v-61.629573c0-5.273229-2.25112-10.307327-6.184397-13.82831l-49.025772-43.855617a18.615033 18.615033 0 0 0-12.368793-4.724879H76.111367a18.524329 18.524329 0 0 0-13.634532 5.970004L22.010267 715.872753a18.536698 18.536698 0 0 0-4.918657 12.583185v61.629573a18.549067 18.549067 0 0 0 18.549067 18.553189zM763.263783 410.301723H74.280786a18.553189 18.553189 0 0 1 18.55319 18.553189V346.672529a18.553189 18.553189 0 0 1-18.55319 18.553189h688.982997a18.553189 18.553189 0 0 1-18.553189-18.553189v82.182383a18.553189 18.553189 0 0 1 18.553189-18.553189z m0-82.182383H74.280786a18.553189 18.553189 0 0 0-18.553189 18.553189v82.182383a18.553189 18.553189 0 0 0 18.553189 18.55319h688.982997c10.241361 0 18.553189-8.307706 18.553189-18.55319V346.672529a18.553189 18.553189 0 0 0-18.553189-18.553189z" fill="#6E6E96" p-id="7391"></path><path d="M89.399574 287.32706h571.025941v40.79228h-571.025941z" fill="#FFFFFF" opacity=".54" p-id="7392"></path><path d="M149.182073 287.32706h313.342755v40.79228h-313.342755z" fill="#FFFFFF" opacity=".54" p-id="7393"></path><path d="M511.311471 727.763286l101.700338-101.696216h90.704482l-90.704482 101.696216zM662.486981 727.763286l101.494192-101.498315h38.685461l-101.494192 101.498315zM487.950944 727.763286l101.494192-101.498315h-12.855299l-101.494192 101.498315z" fill="#FFFFFF" opacity=".22" p-id="7394"></path><path d="M189.611535 225.289318h459.550133l37.386738 24.931363H153.164825zM744.710594 447.408102H94.664557v218.643153h34.587268v-187.032641h157.359907v187.032641h36.417849v-187.032641h158.736966v187.032641h37.790785v-187.032641h153.236976v187.032641h30.921983v-187.032641h40.994303z" fill="#6E6E96" opacity=".15" p-id="7395"></path><path d="M995.9785 934.924076c0 35.27992-28.852271 64.173421-64.161052 64.177544l-477.567342 0.160794c-35.288166 0.008246-64.18579-28.844025-64.18579-64.140437l-0.115442-346.519981c-0.012369-35.296412 28.839902-64.169298 64.136314-64.177543l477.59208-0.160795c35.27992-0.016492 64.161052 28.852271 64.177544 64.128069l0.123688 346.532349z" fill="#BFE9FF" p-id="7396"></path><path d="M389.969489 626.264971h605.914183v101.494192H389.969489zM458.216365 797.861358h209.766483v37.106379H458.216365zM458.216365 875.496149h137.51624v37.106379H458.216365z" fill="#6E6E96" p-id="7397"></path><path d="M809.362274 808.49852h110.313142v86.668133h-110.313142z" fill="#FFE87F" p-id="7398"></path><path d="M809.362274 827.05171h110.313142a18.553189 18.553189 0 0 1-18.55319-18.55319v86.668133c0-10.241361 8.307706-18.553189 18.55319-18.55319h-110.313142c10.245483 0 18.553189 8.311829 18.55319 18.55319v-86.668133a18.553189 18.553189 0 0 1-18.55319 18.55319z m0 86.668132h110.313142c10.245483 0 18.553189-8.311829 18.553189-18.553189v-86.668133c0-10.237238-8.307706-18.553189-18.553189-18.553189h-110.313142a18.561435 18.561435 0 0 0-18.553189 18.553189v86.668133a18.553189 18.553189 0 0 0 18.553189 18.553189z" fill="#6E6E96" p-id="7399"></path><path d="M924.173534 955.716017l-458.721425 0.148426c-33.894616 0.012369-61.650187-27.706096-61.650187-61.604835l-0.094827-285.62429c0 0.103073-0.016492 0.210269-0.016492 0.317466l0.111319 332.840095c0 33.906984 27.755571 61.613081 61.650187 61.604835l458.721425-0.152549c33.902861-0.004123 61.613081-27.755571 61.61308-61.646064l-0.016492-47.199314c-0.173163 33.71733-27.800924 61.307984-61.596588 61.31623z" fill="#6E6E96" opacity=".15" p-id="7400"></path><path d="M461.188999 562.846046l458.717301-0.152548c33.902861-0.008246 61.650187 27.706096 61.650187 61.600712l0.094827 285.632536c0-0.107196 0.016492-0.210269 0.016492-0.317466l-0.111319-332.840096c0-33.902861-27.747326-61.604835-61.650187-61.596589l-458.717301 0.152549c-33.906984 0-61.617204 27.751448-61.617204 61.637818l0.016492 47.211683c0.16904-33.742067 27.800924-61.328598 61.600712-61.328599z" fill="#FFFFFF" opacity=".39" p-id="7401"></path><path d="M977.42531 934.924076c0 25.162248-20.462106 45.620231-45.607862 45.624354l-477.571465 0.160795c-12.117294 0.004123-23.562551-4.761985-32.216583-13.416018-8.645786-8.649909-13.407772-20.070428-13.407772-32.17123l-0.115442-346.53235c-0.004123-12.113171 4.753739-23.554305 13.403649-32.208336 8.645786-8.654032 20.070428-13.411894 32.183599-13.420141l477.596203-0.160794c25.149879-0.008246 45.607863 20.437369 45.616108 45.591371-0.012369 0.008246 0.119565 346.540595 0.119565 346.532349z m36.974445-346.540595c-0.016492-45.607863-37.139362-82.693627-82.734856-82.673012l-477.592079 0.160794c-22.020574 0.004123-42.767163 8.633417-58.417809 24.292309-15.654769 15.667138-24.271695 36.421972-24.263449 58.450793l0.115442 346.519981c0 22.008206 8.621049 42.750671 24.27994 58.40544 15.667138 15.663015 36.430218 24.292309 58.467285 24.288186l477.571464-0.160794c45.599617-0.004123 82.705996-37.118748 82.705996-82.722487l-0.131934-346.56121z" fill="#6E6E96" p-id="7402"></path><path d="M408.547416 727.763286h568.807804v17.184376H408.547416z" fill="#FFFFFF" opacity=".39" p-id="7403"></path><path d="M408.510309 626.264971h568.807805v19.728225H408.510309z" fill="#0A0A0A" opacity=".12" p-id="7404"></path><path d="M491.385345 718.701083l72.707888-72.703765h12.327564l-72.703765 72.703765z" fill="#F0F0FF" opacity=".11" p-id="7405"></path><path d="M557.269782 718.701083l72.699642-72.703765h64.358953l-72.703765 72.703765zM643.072099 718.701083l72.703765-72.703765h37.617622l-72.707888 72.703765z" fill="#F0F0FF" opacity=".2" p-id="7406"></path></svg>