<?xml version="1.0" standalone="no"?><!DOCTYPE svg PUBLIC "-//W3C//DTD SVG 1.1//EN" "http://www.w3.org/Graphics/SVG/1.1/DTD/svg11.dtd"><svg t="1778349421865" class="icon" viewBox="0 0 1024 1024" version="1.1" xmlns="http://www.w3.org/2000/svg" p-id="14485" xmlns:xlink="http://www.w3.org/1999/xlink" width="200" height="200"><path d="M958.464 664.064l-80.896-302.592c-6.656-25.088-32.768-40.448-58.368-33.792l-56.832 15.36-189.44-188.928c-18.432-18.432-48.64-18.432-67.072 0l-427.52 427.52c-18.432 18.432-18.432 48.64 0 67.584L289.28 860.16c3.584 4.608 7.68 8.704 12.288 12.288 6.144 5.12 12.8 8.704 20.48 10.752 2.56 0.512 5.12 1.024 7.168 1.024h7.68c4.096-0.512 5.632-0.512 7.68-1.024 1.024-0.512 2.56-1.024 3.584-1.024 1.024-0.512 2.56-0.512 3.584-1.024 2.56-1.024 4.608-2.048 7.168-3.584 3.072-2.048 4.096-3.072 5.632-4.096l560.64-150.016c25.088-8.192 39.936-34.304 33.28-59.392z m-601.088 184.32c-1.536 1.536-2.56 2.56-4.096 3.584l-3.072 1.536c-11.264 5.632-25.6 4.608-34.816-5.12l-43.52-43.52-171.52-171.52c-11.776-11.776-11.776-30.72 0-42.496l2.048-2.048 408.064-407.552 5.12-5.12c11.776-11.776 30.72-11.776 42.496 0l175.104 175.104 17.92 18.432 21.504 21.504c11.776 11.776 11.776 30.72 0 42.496l-415.232 414.72z m460.8-314.88c0.512 2.048 1.024 4.096 1.024 6.144v0.512c0 2.56 0.512 4.608 0 7.168v0.512c0 2.56-0.512 4.608-1.024 7.168-1.024 4.608-3.072 9.216-5.632 12.8 0 0 0 0.512-0.512 0.512-1.024 2.048-2.56 3.584-4.096 5.12l-0.512 0.512c-1.536 1.536-3.072 3.072-5.12 4.096-0.512 0-0.512 0.512-1.024 0.512-1.536 1.536-3.584 2.56-5.632 3.584 0 0-0.512 0-1.024 0.512-2.048 1.024-4.096 1.536-6.656 2.56-1.024 0.512-2.048 0.512-3.072 0.512h-1.024c-1.024 0-2.048 0-2.56 0.512H771.584c-1.024 0-1.536-0.512-2.56-0.512-0.512 0-1.024 0-1.536-0.512-0.512 0-1.536-0.512-2.048-0.512-0.512 0-1.024-0.512-1.536-0.512-0.512 0-1.536-0.512-2.048-1.024-0.512 0-1.024-0.512-1.536-1.024-0.512-0.512-1.536-0.512-2.048-1.024-0.512-0.512-1.024-0.512-1.536-1.024l-0.512-0.512c-0.512-0.512-1.024-0.512-1.536-1.024-0.512 0-1.024-0.512-1.024-1.024-0.512-0.512-1.536-1.024-2.048-1.536-0.512-0.512-1.024-0.512-1.024-1.024-0.512-0.512-1.536-1.024-2.048-2.048l-1.024-1.024c-0.512-0.512-1.024-1.536-1.536-2.048l-1.024-1.024c-0.512-0.512-1.024-1.536-1.536-2.048-0.512-0.512-0.512-1.024-0.512-1.024-0.512-1.024-1.024-1.536-1.536-2.56 0-0.512-0.512-0.512-0.512-1.024-0.512-1.024-1.024-2.048-1.024-2.56 0-0.512-0.512-0.512-0.512-1.024-0.512-1.536-1.024-2.56-1.536-4.096-0.512-1.536-1.024-3.072-1.024-4.608v-1.024c-0.512-2.048-0.512-4.608-0.512-6.656v-0.512c0-2.048 0.512-4.608 1.024-6.656v-0.512c0.512-2.048 1.536-4.096 2.048-6.144 0-0.512 0-0.512 0.512-1.024 1.024-2.048 2.048-4.096 3.072-5.632 0-0.512 0.512-0.512 0.512-1.024 1.024-1.536 2.56-3.584 4.096-5.12 0-0.512 0.512-0.512 0.512-1.024 1.536-1.536 3.072-3.072 5.12-4.096 0 0 0.512-0.512 1.024-0.512 2.048-1.536 3.584-2.56 6.144-3.584 0 0 0.512 0 0.512-0.512 2.048-1.024 4.608-2.048 7.168-2.56 2.048-0.512 3.584-1.024 5.632-1.024H780.8c2.048 0 3.584 0.512 5.12 0.512h1.536c1.536 0.512 3.072 0.512 4.608 1.024 0 0 0.512 0 0.512 0.512 1.536 0.512 3.072 1.024 5.12 2.048 0.512 0 0.512 0.512 1.024 0.512 1.536 0.512 2.56 1.536 4.096 2.56l0.512 0.512c1.536 1.024 3.072 2.048 4.096 3.584 0.512 0 0.512 0.512 0.512 0.512 1.024 1.024 2.048 2.048 3.072 3.584l0.512 0.512c2.048 3.584 5.12 9.216 6.656 15.36z m-214.528 118.272c20.48-9.216 28.16-26.112 24.064-42.496l62.464-62.464c3.072 6.144 5.632 12.288 7.168 19.456 15.872 59.392-24.576 121.344-90.112 139.264-25.6 7.168-51.2 5.632-74.24-1.536l44.032-44.032c2.56-0.512 5.632-0.512 8.192-1.536l4.608 17.92 18.432-5.12-4.608-19.456z m306.688 51.2L396.288 840.704l31.744-31.744 433.152-116.224c1.024-0.512 2.048-1.024 2.56-2.048 0.512-1.024 0.512-2.56-0.512-3.584-2.048-3.072-3.072-5.632-3.584-8.192-4.608-16.896 7.168-35.328 26.624-40.448 2.56-0.512 5.632-1.024 9.216-1.024 1.024 0 2.048-0.512 3.072-1.536 0.512-1.024 1.024-2.048 0.512-3.072l-57.856-216.064c-0.512-1.024-1.024-2.048-2.048-2.56-1.024-0.512-2.048-0.512-3.072 0-3.072 1.536-5.632 2.56-8.704 3.584-6.656 2.048-13.312 1.536-19.456 0 3.072-14.848-1.536-31.232-12.8-42.496l-14.336-14.336 29.184-7.68 6.656-2.048c15.872-4.096 32.256 5.12 36.864 20.992l78.848 293.376c3.584 16.896-6.144 33.28-22.016 37.376z" fill="#F7AF3E" p-id="14486"></path><path d="M724.992 375.808l-17.92-17.92L569.344 220.16c-1.024-0.512-2.048-1.024-3.072-1.024-1.024 0-2.048 0.512-2.56 1.536-2.048 3.072-3.584 5.12-5.632 7.168-14.336 14.336-35.84 15.36-48.128 2.56-1.536-1.536-3.072-3.584-4.608-6.144-0.512-1.024-1.536-1.536-2.56-2.048-1.024 0-2.048 0-3.072 1.024L239.616 482.816l-39.936 39.936-53.248 53.248c-1.024 1.024-1.024 2.048-1.024 3.072 0 1.024 1.024 2.048 2.048 2.56 2.56 1.536 4.608 3.072 6.144 4.608 12.8 12.8 11.264 34.304-2.56 48.128-1.536 1.536-3.584 3.584-5.632 5.12-1.024 0.512-1.536 1.536-1.536 2.56s0.512 2.048 1.024 3.072l115.2 115.2 37.376 37.376 4.608 4.608c0.512 0.512 2.048 1.024 3.072 1.024 1.024 0 2.048-0.512 2.56-1.536 13.312-19.456 38.912-22.528 53.248-8.704 2.048 2.048 3.584 4.096 5.12 7.168 0.512 1.024 1.536 1.536 2.56 2.048 1.024 0 2.56 0 3.072-1.024l353.28-353.28c1.024-1.024 1.536-2.048 1.024-3.072 0-1.024-1.024-2.048-2.048-2.56-3.072-1.536-5.632-3.072-7.168-5.12-12.288-12.8-11.264-34.304 3.072-48.128 2.048-2.048 4.096-3.584 7.168-5.632 1.024-0.512 1.536-1.536 1.536-2.56s0-2.56-1.024-3.072l-2.56-2.048z m-396.288 278.016c0 10.752-4.096 20.992-12.288 29.184-12.8 12.8-32.256 15.36-48.128 8.192-4.096-2.048-8.192-4.608-11.776-8.192-3.584-3.584-6.144-7.68-8.192-12.288v-0.512c-0.512-1.536-1.536-3.584-2.048-5.12v-0.512c-0.512-1.536-1.024-3.584-1.024-5.12v-1.536c0-1.536-0.512-3.584-0.512-5.632v-1.024c0-1.536 0-3.072 0.512-4.608v-1.024c0.512-1.536 0.512-3.584 1.536-5.12 0-0.512 0.512-1.024 0.512-1.024 0.512-1.536 1.024-3.072 2.048-4.608 0 0 0-0.512 0.512-0.512 1.024-1.536 1.536-3.072 2.56-4.608v-0.512c0-0.512 0.512-0.512 1.024-1.024 1.024-1.536 2.56-3.072 4.096-4.608 16.384-16.384 43.008-16.384 59.904 0l3.072 3.072c0.512 0.512 0.512 1.024 1.024 1.024 0.512 1.024 1.024 1.536 1.536 2.048 0.512 0.512 0.512 1.024 1.024 1.536 0.512 0.512 1.024 1.536 1.536 2.048 0 0.512 0.512 1.024 0.512 1.536 0.512 1.024 0.512 1.536 1.024 2.56 0 0.512 0.512 1.024 0.512 1.536 0.512 1.024 0.512 1.536 1.024 2.048 0 0.512 0.512 1.024 0.512 1.536 0 1.024 0.512 1.536 0.512 2.56 0 0.512 0 1.024 0.512 1.536 0 0.512 0 1.536 0.512 2.56v2.048c-2.048 1.024-2.048 1.536-2.048 2.56z m182.272-67.072c-48.128 48.128-122.368 51.712-165.376 8.704-29.184-29.184-36.352-71.68-24.064-111.616 3.072-9.216 6.656-17.92 11.776-26.112 5.632-9.728 12.288-19.456 20.992-28.16 44.032-44.032 109.056-50.688 153.088-18.432 4.096 3.072 8.704 6.144 12.288 9.728 2.56 2.56 4.096 5.12 6.656 8.192 35.328 44.032 30.208 112.64-15.36 157.696z m109.056-222.208v0.512c0 2.048-0.512 4.096-1.024 6.656v1.024c-0.512 2.048-1.024 4.096-2.048 6.144 0 0.512-0.512 0.512-0.512 1.024-0.512 1.024-1.024 1.536-1.536 2.56l-1.536 3.072-0.512 0.512c-1.536 2.048-2.56 3.584-4.608 5.632-1.024 1.024-1.536 1.536-2.56 2.048l-0.512 0.512c-0.512 0.512-1.536 1.024-2.048 1.536-0.512 0.512-1.024 0.512-1.024 1.024-0.512 0.512-1.536 1.024-2.048 1.536-0.512 0-1.024 0.512-1.536 1.024-0.512 0.512-1.536 0.512-2.048 1.024-0.512 0-1.024 0.512-1.536 0.512-0.512 0.512-1.536 0.512-2.048 1.024-0.512 0-1.024 0.512-1.536 0.512-0.512 0-1.536 0.512-2.56 0.512-0.512 0-1.024 0.512-1.536 0.512-0.512 0-1.536 0-2.048 0.512H579.072h-4.096c-1.024 0-1.536 0-2.56-0.512h-1.536c-1.024 0-1.536-0.512-2.56-0.512-0.512 0-1.024-0.512-1.536-0.512-1.024 0-1.536-0.512-2.56-1.024-0.512 0-1.024-0.512-1.536-0.512-1.024-0.512-1.536-0.512-2.56-1.024-0.512 0-1.024-0.512-1.024-0.512-0.512-0.512-1.536-0.512-2.048-1.024 0 0-0.512 0-0.512-0.512-0.512 0-0.512-0.512-1.024-0.512-1.024-0.512-1.536-1.024-2.56-1.536-0.512 0-0.512-0.512-1.024-0.512l-3.072-3.072c-1.024-1.024-2.048-2.56-3.072-3.584 0 0 0-0.512-0.512-0.512 0 0 0-0.512-0.512-0.512-1.536-1.536-2.56-3.584-3.584-5.632 0 0 0-0.512-0.512-0.512-1.024-2.048-2.048-4.096-2.56-6.144v-0.512c-0.512-2.048-1.024-4.608-1.536-6.656v-1.024c0-2.048-0.512-4.096 0-6.656v-1.024c0-2.048 0.512-4.096 1.024-6.144 0-0.512 0-0.512 0.512-1.024 0.512-2.048 1.024-4.096 2.048-6.144 0-0.512 0.512-0.512 0.512-1.024l3.072-6.144 0.512-0.512c1.536-2.048 3.072-4.096 4.608-5.632 1.536-1.536 2.56-2.56 4.096-3.584 0.512-0.512 1.024-0.512 1.024-1.024 1.536-1.024 2.56-2.048 4.096-2.56h0.512c1.536-1.024 3.072-1.536 5.12-2.048 0.512 0 1.024-0.512 1.024-0.512l4.608-1.536h0.512c1.536-0.512 3.584-0.512 5.12-0.512h6.656c2.048 0 3.584 0.512 5.12 0.512h1.024l4.608 1.536h0.512c5.632 2.048 10.752 5.12 14.848 9.728 1.536 1.536 3.072 3.072 4.096 5.12v0.512c1.536 2.048 2.56 4.096 3.584 6.144v0.512c1.024 2.048 2.048 4.096 2.56 6.656 1.536 3.584 2.048 8.192 2.048 12.8z" fill="#F7AF3E" p-id="14487"></path><path d="M490.496 494.08L477.696 481.28l-1.536-1.536-21.504 21.504-4.096-4.096-14.848-52.736-8.704-30.72-0.512-2.56-27.136 26.624 12.8 35.84 5.12 13.312-10.24-3.584-39.424-13.824-27.648 27.648 3.072 1.024 84.48 24.576 2.56 2.56-21.504 21.504 2.048 2.048 12.8 12.8 20.992-21.504 28.16 28.16 24.576-24.576-28.16-28.16z" fill="#F7AF3E" p-id="14488"></path></svg>